<?xml version="1.0" encoding="utf-8"?>
<!-- Generator: Adobe Illustrator 15.0.0, SVG Export Plug-In . SVG Version: 6.00 Build 0)  -->
<!DOCTYPE svg PUBLIC "-//W3C//DTD SVG 1.1//EN" "http://www.w3.org/Graphics/SVG/1.1/DTD/svg11.dtd">
<svg version="1.1" id="Layer_1" xmlns="http://www.w3.org/2000/svg" xmlns:xlink="http://www.w3.org/1999/xlink" x="0px" y="0px"
	 width="141.73px" height="141.73px" viewBox="0 0 141.73 141.73" enable-background="new 0 0 141.73 141.73" xml:space="preserve">
<circle id="Cercle2_5_" display="none" fill="none" stroke="#1D1D1B" stroke-miterlimit="10" cx="70.847" cy="71.335" r="66.195"/>
<path id="Cercle_contour" fill="none" stroke="#000000" stroke-width="0.5" stroke-miterlimit="10" d="M136.878,66.689
	c-2.566-36.468-34.209-63.951-70.677-61.385c-21.648,1.523-40.13,13.292-51.04,30.235c10.438,5.786,23.643,2.262,34.64,7.034
	c2.575,1.119,4.834,2.806,6.648,4.853c1.405,0.032,3.838,0.373,7.414,1.854l1.422,0.458l0.33-0.44l1.596,0.522
	c0.057,0.034,0.11,0.086,0.162,0.147c0.014,0.016,0.027,0.033,0.039,0.05c0.047,0.061,0.09,0.128,0.132,0.206
	c0.005,0.009,0.011,0.017,0.016,0.026c0.042,0.083,0.084,0.178,0.123,0.278c-0.003-0.007-0.005-0.016-0.008-0.022l1.892,0.5
	l0.36-0.294l1.588,0.499c0,0,0.241,0.676,0.492,1.378c0.069-0.044,0.14-0.091,0.207-0.143c0,0,0.361-0.502,1.157-0.447l0.219-0.293
	l1.5,0.417c0,0,0.102,0.126,0.25,0.322l3.068,0.739l0.186-0.272l1.232,0.308c0.038,0.023,0.159,0.171,0.319,0.382l2.538,0.362
	l0.22-0.261l1.487,0.208l0.471,0.4l2.332,0.4l-1.882-0.324l3.391,0.582l0.503,0.103l0.339-0.262l1.957,0.44
	c0,0-0.046,0.11-0.117,0.268l3.617,0.74l0.769,0.215l3.185-0.102l0.624-0.107l0.469,0.35c0,0,10.451-1.428,15.825-0.874l1.188-0.223
	c0,0,2.818,1.124,4.459,3.874l0.198-0.013l0.719,2.016l-0.325,0.621l0.231,0.648c0,0,0.18,1.548-0.426,2.512
	c-0.606,0.964-0.606,0.964-0.606,0.964l-0.432,0.241c0,0-0.296,1.026-1.451,1.897c-1.154,0.874-2.551,1.898-2.551,1.898l-0.75,0.459
	l-2.765,1.678l-0.968,0.518c-0.396,0.257-2.648,1.521-2.648,1.521l-5.943,3.417c-0.373,0.162-2.227,0.852-2.227,0.852l-3.47,1.296
	l-3.334,1.161l-4.578,1.75l-0.399,0.181l-3.011,1.073L58.718,94.178L54.371,95.7l-2.929,0.9c-0.893,0.321-12.467,4.075-12.467,4.075
	l-0.514,0.012l-5.015-1.72L33.18,98.22l-0.789-2.211l-0.668-1.871l-0.34-0.953l-0.279-0.782l0.262-0.554l-0.134-0.376
	c0,0-0.82-0.473-1.233-1.628l-1.02-2.857c0,0-0.725-4.075-0.587-5.083l-0.109-0.844l-0.619-1.736l-0.147-1.596l-0.248-3.594
	l-0.279-0.782c0,0-1.17-3.495,0.181-6.047c0,0-0.315-0.884,0.853-1.801l1.729-1.384c0,0,1.104-1.314,3.973,0.384
	c2.869,1.7,4.691,3.044,6.451,3.029c1.401-0.012,4.827-0.56,7.676-3.49c-0.896-0.332-1.736-0.777-2.463-1.326
	c-3.095,0.153-6.219-0.688-8.608-2.681c-2.617-0.042-5.73-0.12-7.728-1.91c-4.953-0.423-9.131-2.579-9.889-7.563
	c-2.109-1.609-3.69-3.833-4.042-6.55c-1.191-0.803-2.307-1.721-3.251-2.75C6.573,51.63,3.938,63.523,4.815,75.981
	c2.566,36.468,34.209,63.95,70.678,61.385C111.961,134.8,139.444,103.157,136.878,66.689z"/>
<g id="Textes">
	<text transform="matrix(1 0 0 1 32.999 120.8438)" fill="#1D1D1B" font-family="'BrushScriptStd'" font-size="20">Pops One</text>
	<text transform="matrix(1 0 0 1 32.4507 27.3906)" fill="#1D1D1B" font-family="'BrushScriptStd'" font-size="16">Sneaker</text>
	<text transform="matrix(1 0 0 1 61.8721 40.5747)" fill="#1D1D1B" font-family="'BrushScriptStd'" font-size="16">Custom</text>
</g>
<g id="Sneaker">
	<path fill="none" stroke="#1D1D1B" stroke-width="0.5" stroke-linejoin="bevel" stroke-miterlimit="10" d="M122.11,62.015
		l0.325-0.621l-0.719-2.016l-0.198,0.013c-1.641-2.75-4.459-3.874-4.459-3.874l-1.188,0.223c-5.374-0.554-15.825,0.874-15.825,0.874
		l-0.469-0.35l-0.624,0.107l-3.185,0.102l-0.769-0.215l-3.617-0.74c0.071-0.158,0.117-0.268,0.117-0.268l-1.957-0.44l-0.339,0.262
		l-0.503-0.103l-3.391-0.582l1.882,0.324l-2.332-0.4l-0.471-0.4l-1.487-0.208l-0.22,0.261L80.146,53.6
		c-0.16-0.211-0.281-0.359-0.319-0.382l-1.232-0.308l-0.186,0.272l-3.068-0.739c-0.148-0.195-0.25-0.322-0.25-0.322l-1.5-0.417
		l-0.219,0.293c-0.796-0.056-1.157,0.447-1.157,0.447c-0.067,0.052-0.138,0.099-0.207,0.143c-0.251-0.703-0.492-1.378-0.492-1.378
		l-1.588-0.499l-0.36,0.294l-1.892-0.5c0.003,0.007,0.005,0.016,0.008,0.022c-0.039-0.1-0.081-0.194-0.123-0.278
		c-0.005-0.01-0.011-0.017-0.016-0.026c-0.042-0.078-0.085-0.146-0.132-0.206c-0.012-0.017-0.025-0.035-0.039-0.05
		c-0.052-0.061-0.105-0.114-0.162-0.147l-1.596-0.522l-0.33,0.44l-1.422-0.458c-3.575-1.482-6.009-1.823-7.414-1.854
		c-1.814-2.047-4.073-3.734-6.648-4.853c-12.302-5.338-27.373-0.284-38.235-9.511c-0.197-0.168-0.412-0.042-0.481,0.139
		c-0.084,0.01-0.158,0.076-0.155,0.19c0.039,0.923,0.229,1.8,0.536,2.631c-0.611-0.419-1.215-0.87-1.804-1.37
		c-0.197-0.168-0.412-0.042-0.481,0.139c-0.085,0.01-0.159,0.076-0.155,0.19c0.157,3.808,2.85,6.849,6.095,9.035
		c0.353,2.717,1.933,4.94,4.042,6.55c0.758,4.983,4.937,7.139,9.889,7.563c1.998,1.79,5.111,1.868,7.728,1.91
		c2.389,1.992,5.513,2.834,8.608,2.681c0.728,0.548,1.567,0.994,2.463,1.326c-2.85,2.93-6.275,3.479-7.676,3.49
		c-1.76,0.015-3.582-1.329-6.451-3.029c-2.869-1.698-3.973-0.384-3.973-0.384l-1.729,1.384c-1.168,0.917-0.853,1.801-0.853,1.801
		c-1.352,2.553-0.181,6.047-0.181,6.047l0.279,0.782l0.248,3.594l0.147,1.596l0.619,1.736l0.109,0.844
		c-0.138,1.008,0.587,5.083,0.587,5.083l1.02,2.857c0.413,1.155,1.233,1.628,1.233,1.628l0.134,0.376l-0.262,0.554l0.279,0.782
		l0.34,0.953l0.668,1.871l0.789,2.211l0.267,0.748l5.015,1.72l0.514-0.012c0,0,11.574-3.754,12.467-4.075l2.929-0.9l4.347-1.522
		l28.065-10.097l3.011-1.073l0.399-0.181l4.578-1.75l3.334-1.161l3.47-1.296c0,0,1.854-0.689,2.227-0.852l5.943-3.417
		c0,0,2.252-1.264,2.648-1.521l0.968-0.518l2.765-1.678l0.75-0.459c0,0,1.396-1.025,2.551-1.898
		c1.155-0.872,1.451-1.897,1.451-1.897l0.432-0.241c0,0,0,0,0.606-0.964c0.605-0.964,0.426-2.512,0.426-2.512L122.11,62.015z"/>
	<path id="Aile1_5_" fill="none" stroke="#1D1D1B" stroke-width="0.5" stroke-linejoin="bevel" stroke-miterlimit="10" d="
		M9.662,34.651c10.862,9.227,25.932,4.172,38.234,9.51c9.458,4.109,14.684,15.835,9.101,25.173c-0.107,0.18-0.375,0.106-0.381-0.065
		c-0.092,0.111-0.294,0.059-0.282-0.12c0.102-1.954-0.084-3.678-0.886-5.46c-3.033,1.753-7.327,1.088-10.06-0.972
		c-3.095,0.153-6.219-0.688-8.608-2.681c-2.617-0.042-5.73-0.12-7.728-1.91c-4.953-0.423-9.131-2.579-9.889-7.563
		c-2.109-1.609-3.69-3.833-4.042-6.55c-3.245-2.186-5.938-5.227-6.095-9.035c-0.004-0.114,0.07-0.18,0.155-0.19
		C9.25,34.61,9.465,34.483,9.662,34.651z"/>
	<g>
		<path fill="none" stroke="#1D1D1B" stroke-width="0.5" stroke-linejoin="bevel" stroke-miterlimit="10" d="M52.112,66.504
			c0,0-4.36,4.337-12.339,5.402"/>
		<path fill="none" stroke="#1D1D1B" stroke-width="0.5" stroke-linejoin="bevel" stroke-miterlimit="10" d="M55.167,63.843
			c-0.936,0.85-1.952,1.739-3.054,2.661"/>
		<path fill="none" stroke="#1D1D1B" stroke-width="0.5" stroke-linejoin="bevel" stroke-miterlimit="10" d="M64.646,53.268
			c0,0-1.471,2.516-5.406,6.622"/>
		<path fill="none" stroke="#1D1D1B" stroke-width="0.5" stroke-linejoin="bevel" stroke-miterlimit="10" d="M60.766,51.315
			c0,0,2.449,0.737,3.881,1.953"/>
		<path fill="none" stroke="#1D1D1B" stroke-width="0.5" stroke-linejoin="bevel" stroke-miterlimit="10" d="M57.074,52.606
			c1.104-0.967,2.382-1.612,3.692-1.292"/>
		<path fill="none" stroke="#1D1D1B" stroke-width="0.5" stroke-linejoin="bevel" stroke-miterlimit="10" d="M45.682,66.863
			c1.139-0.689,2.173-1.571,3.092-2.521"/>
		<path fill="none" stroke="#1D1D1B" stroke-width="0.5" stroke-linejoin="bevel" stroke-miterlimit="10" d="M37.199,68.241
			c0,0,3.53,1.616,8.482-1.378"/>
		<path fill="none" stroke="#1D1D1B" stroke-width="0.5" stroke-linejoin="bevel" stroke-miterlimit="10" d="M31.99,64.928
			c1.408,0.72,5.209,3.313,5.209,3.313"/>
		<path fill="none" stroke="#1D1D1B" stroke-width="0.5" stroke-linejoin="bevel" stroke-miterlimit="10" d="M29.503,65.159
			c0,0,1.08-0.952,2.487-0.231"/>
		
			<line fill="none" stroke="#1D1D1B" stroke-width="0.5" stroke-linejoin="bevel" stroke-miterlimit="10" x1="27.17" y1="67.305" x2="29.503" y2="65.159"/>
		
			<line fill="none" stroke="#1D1D1B" stroke-width="0.5" stroke-linejoin="bevel" stroke-miterlimit="10" x1="52.447" y1="75.071" x2="53.985" y2="76.479"/>
		<path fill="none" stroke="#1D1D1B" stroke-width="0.5" stroke-linejoin="bevel" stroke-miterlimit="10" d="M48.885,73.046
			c0,0,1.743,0.258,3.562,2.025"/>
		<path fill="none" stroke="#1D1D1B" stroke-width="0.5" stroke-linejoin="bevel" stroke-miterlimit="10" d="M40.363,71.944
			c4.417,0.315,8.522,1.102,8.522,1.102"/>
		<path fill="none" stroke="#1D1D1B" stroke-width="0.5" stroke-linejoin="bevel" stroke-miterlimit="10" d="M30.087,71.738
			c1.186,0.056,5.885-0.105,10.275,0.207"/>
		<path fill="none" stroke="#1D1D1B" stroke-width="0.5" stroke-linejoin="bevel" stroke-miterlimit="10" d="M27.331,72.722
			c0,0,0.378-1.092,2.756-0.984"/>
		
			<line fill="none" stroke="#1D1D1B" stroke-width="0.5" stroke-linejoin="bevel" stroke-miterlimit="10" x1="26.989" y1="73.353" x2="27.331" y2="72.722"/>
		<path fill="none" stroke="#1D1D1B" stroke-width="0.5" stroke-linejoin="bevel" stroke-miterlimit="10" d="M32.35,82.052
			c-3.39,0.713-3.372,4.936-3.372,4.936"/>
		<path fill="none" stroke="#1D1D1B" stroke-width="0.5" stroke-linejoin="bevel" stroke-miterlimit="10" d="M53.985,76.479
			c-2.869,1.311-21.635,5.573-21.635,5.573"/>
		<path fill="none" stroke="#1D1D1B" stroke-width="0.5" stroke-linejoin="bevel" stroke-miterlimit="10" d="M72.619,71.148
			c0,0-15.766,4.018-18.634,5.33"/>
		<path fill="none" stroke="#1D1D1B" stroke-width="0.5" stroke-linejoin="bevel" stroke-miterlimit="10" d="M79.98,66.896
			c-4.56,3.772-7.361,4.253-7.361,4.253"/>
		
			<line fill="none" stroke="#1D1D1B" stroke-width="0.5" stroke-linejoin="bevel" stroke-miterlimit="10" x1="84.023" y1="64.146" x2="79.98" y2="66.896"/>
		<path fill="none" stroke="#1D1D1B" stroke-width="0.5" stroke-linejoin="bevel" stroke-miterlimit="10" d="M88.164,65.861
			c-1.321-3.7-4.141-1.715-4.141-1.715"/>
		<path fill="none" stroke="#1D1D1B" stroke-width="0.5" stroke-linejoin="bevel" stroke-miterlimit="10" d="M93.251,66.681
			c-0.671,0.701-3.766,2.879-5.087-0.82"/>
		
			<line fill="none" stroke="#1D1D1B" stroke-width="0.5" stroke-linejoin="bevel" stroke-miterlimit="10" x1="94.725" y1="65.12" x2="93.251" y2="66.681"/>
		<path fill="none" stroke="#1D1D1B" stroke-width="0.5" stroke-linejoin="bevel" stroke-miterlimit="10" d="M97.269,63.215
			c-1.86,0.702-2.544,1.904-2.544,1.904"/>
		<path fill="none" stroke="#1D1D1B" stroke-width="0.5" stroke-linejoin="bevel" stroke-miterlimit="10" d="M115.872,55.74
			c5.563,0.363-18.604,7.475-18.604,7.475"/>
		<path fill="none" stroke="#1D1D1B" stroke-width="0.5" stroke-linejoin="bevel" stroke-miterlimit="10" d="M65.047,85.633
			c-0.324-0.909-1.324-1.384-2.232-1.06"/>
		<path fill="none" stroke="#1D1D1B" stroke-width="0.5" stroke-linejoin="bevel" stroke-miterlimit="10" d="M63.988,87.865
			c0.909-0.324,1.383-1.324,1.059-2.232"/>
		
			<line fill="none" stroke="#1D1D1B" stroke-width="0.5" stroke-linejoin="bevel" stroke-miterlimit="10" x1="48.92" y1="93.111" x2="63.988" y2="87.865"/>
		<path fill="none" stroke="#1D1D1B" stroke-width="0.5" stroke-linejoin="bevel" stroke-miterlimit="10" d="M46.686,92.053
			c0.325,0.91,1.324,1.385,2.234,1.059"/>
		<path fill="none" stroke="#1D1D1B" stroke-width="0.5" stroke-linejoin="bevel" stroke-miterlimit="10" d="M47.745,89.82
			c-0.909,0.324-1.383,1.324-1.059,2.232"/>
		
			<line fill="none" stroke="#1D1D1B" stroke-width="0.5" stroke-linejoin="bevel" stroke-miterlimit="10" x1="62.814" y1="84.573" x2="47.745" y2="89.82"/>
		<path fill="none" stroke="#1D1D1B" stroke-width="0.5" stroke-linejoin="bevel" stroke-miterlimit="10" d="M51.969,90.127
			c0.292,0.818-0.136,1.718-0.953,2.011"/>
		<path fill="none" stroke="#1D1D1B" stroke-width="0.5" stroke-linejoin="bevel" stroke-miterlimit="10" d="M49.959,89.176
			c0.817-0.293,1.718,0.134,2.01,0.951"/>
		<path fill="none" stroke="#1D1D1B" stroke-width="0.5" stroke-linejoin="bevel" stroke-miterlimit="10" d="M49.007,91.185
			c-0.292-0.817,0.135-1.718,0.952-2.009"/>
		<path fill="none" stroke="#1D1D1B" stroke-width="0.5" stroke-linejoin="bevel" stroke-miterlimit="10" d="M51.017,92.138
			c-0.818,0.291-1.718-0.135-2.009-0.953"/>
		<path fill="none" stroke="#1D1D1B" stroke-width="0.5" stroke-linejoin="bevel" stroke-miterlimit="10" d="M57.872,88.129
			c0.292,0.817-0.134,1.718-0.953,2.01"/>
		<path fill="none" stroke="#1D1D1B" stroke-width="0.5" stroke-linejoin="bevel" stroke-miterlimit="10" d="M55.861,87.176
			c0.818-0.292,1.717,0.135,2.01,0.953"/>
		<path fill="none" stroke="#1D1D1B" stroke-width="0.5" stroke-linejoin="bevel" stroke-miterlimit="10" d="M54.909,89.186
			c-0.292-0.817,0.134-1.719,0.952-2.01"/>
		<path fill="none" stroke="#1D1D1B" stroke-width="0.5" stroke-linejoin="bevel" stroke-miterlimit="10" d="M56.918,90.139
			c-0.818,0.29-1.718-0.137-2.009-0.953"/>
		<path fill="none" stroke="#1D1D1B" stroke-width="0.5" stroke-linejoin="bevel" stroke-miterlimit="10" d="M63.746,86.133
			c0.291,0.815-0.135,1.717-0.953,2.01"/>
		<path fill="none" stroke="#1D1D1B" stroke-width="0.5" stroke-linejoin="bevel" stroke-miterlimit="10" d="M61.736,85.18
			c0.817-0.293,1.718,0.134,2.01,0.953"/>
		<path fill="none" stroke="#1D1D1B" stroke-width="0.5" stroke-linejoin="bevel" stroke-miterlimit="10" d="M60.783,87.189
			c-0.292-0.817,0.135-1.718,0.953-2.01"/>
		<path fill="none" stroke="#1D1D1B" stroke-width="0.5" stroke-linejoin="bevel" stroke-miterlimit="10" d="M62.793,88.143
			c-0.817,0.292-1.718-0.137-2.01-0.953"/>
		<path fill="none" stroke="#1D1D1B" stroke-width="0.5" stroke-linejoin="bevel" stroke-miterlimit="10" d="M36.451,98.808
			c0,0,1.481,0.391,4.284-0.57"/>
		
			<line fill="none" stroke="#1D1D1B" stroke-width="0.5" stroke-linejoin="bevel" stroke-miterlimit="10" x1="33.18" y1="98.22" x2="36.451" y2="98.808"/>
		<path fill="none" stroke="#1D1D1B" stroke-width="0.5" stroke-linejoin="bevel" stroke-miterlimit="10" d="M105.214,75.375
			c2.846-1.477,16.553-8.746,16.525-12.149"/>
		<path fill="none" stroke="#1D1D1B" stroke-width="0.5" stroke-linejoin="bevel" stroke-miterlimit="10" d="M101.957,76.998
			c0,0,0.408-0.146,3.257-1.623"/>
		<path fill="none" stroke="#1D1D1B" stroke-width="0.5" stroke-linejoin="bevel" stroke-miterlimit="10" d="M40.734,98.237
			c2.802-0.963,61.223-21.239,61.223-21.239"/>
		
			<line fill="none" stroke="#1D1D1B" stroke-width="0.5" stroke-linejoin="bevel" stroke-miterlimit="10" x1="121.739" y1="63.226" x2="121.717" y2="59.378"/>
		<path fill="none" stroke="#1D1D1B" stroke-width="0.5" stroke-linejoin="bevel" stroke-miterlimit="10" d="M97.633,57.793
			c0,0,1.905-0.662,1.945-1.529"/>
		
			<line fill="none" stroke="#1D1D1B" stroke-width="0.5" stroke-linejoin="bevel" stroke-miterlimit="10" x1="93.594" y1="59.693" x2="97.633" y2="57.793"/>
		<path fill="none" stroke="#1D1D1B" stroke-width="0.5" stroke-linejoin="bevel" stroke-miterlimit="10" d="M89.145,67.438
			c-0.018-0.086-0.973-4.934,4.449-7.744"/>
		<path fill="none" stroke="#1D1D1B" stroke-width="0.5" stroke-linejoin="bevel" stroke-miterlimit="10" d="M72.619,71.148
			c0,0,1.701-6.627,9.979-10.137"/>
		<path fill="none" stroke="#1D1D1B" stroke-width="0.5" stroke-linejoin="bevel" stroke-miterlimit="10" d="M91.488,58.819
			c4.102-1.163,1.129-3.05,1.126-3.05"/>
		<path fill="none" stroke="#1D1D1B" stroke-width="0.5" stroke-linejoin="bevel" stroke-miterlimit="10" d="M82.599,61.011
			c4.106-1.926,4.79-1.029,8.89-2.192"/>
		<path fill="none" stroke="#1D1D1B" stroke-width="0.5" stroke-linejoin="bevel" stroke-miterlimit="10" d="M60.417,56.324
			c0.682-0.299,1.028-1.079,0.774-1.791"/>
		<path fill="none" stroke="#1D1D1B" stroke-width="0.5" stroke-linejoin="bevel" stroke-miterlimit="10" d="M59.384,56.812
			c0.102-0.167,0.391-0.295,0.639-0.377l0.302-0.071"/>
		<path fill="none" stroke="#1D1D1B" stroke-width="0.5" stroke-linejoin="bevel" stroke-miterlimit="10" d="M59.013,58.054
			c0.038-0.21,0.222-1,0.371-1.243"/>
		<path fill="none" stroke="#1D1D1B" stroke-width="0.5" stroke-linejoin="bevel" stroke-miterlimit="10" d="M58.42,54.873
			c-0.012,0.102-0.043,0.324-0.108,0.526"/>
		<path fill="none" stroke="#1D1D1B" stroke-width="0.5" stroke-linejoin="bevel" stroke-miterlimit="10" d="M59.361,53.666
			c-0.519,0.186-0.863,0.639-0.935,1.15"/>
		<path fill="none" stroke="#1D1D1B" stroke-width="0.5" stroke-linejoin="bevel" stroke-miterlimit="10" d="M61.192,54.533
			c-0.267-0.744-1.085-1.132-1.831-0.867"/>
		<path fill="none" stroke="#1D1D1B" stroke-width="0.5" stroke-linejoin="bevel" stroke-miterlimit="10" d="M57.013,51.543
			c1.571-0.753,2.143-1.303,4.538-0.93"/>
		<path fill="none" stroke="#1D1D1B" stroke-width="0.5" stroke-linejoin="bevel" stroke-miterlimit="10" d="M56.608,51.798
			c0.144-0.109,0.28-0.196,0.405-0.255"/>
		<path fill="none" stroke="#1D1D1B" stroke-width="0.5" stroke-linejoin="bevel" stroke-miterlimit="10" d="M52.038,57.413"/>
		<path fill="none" stroke="#1D1D1B" stroke-width="0.5" stroke-linejoin="bevel" stroke-miterlimit="10" d="M54.188,47.642
			c-0.231,0.023-0.448,0.142-0.646,0.317"/>
		
			<line fill="none" stroke="#1D1D1B" stroke-width="0.5" stroke-linejoin="bevel" stroke-miterlimit="10" x1="54.983" y1="47.531" x2="54.188" y2="47.642"/>
		<path fill="none" stroke="#1D1D1B" stroke-width="0.5" stroke-linejoin="bevel" stroke-miterlimit="10" d="M63.863,49.279
			c-6.078-2.519-8.88-1.749-8.88-1.749"/>
		
			<line fill="none" stroke="#1D1D1B" stroke-width="0.5" stroke-linejoin="bevel" stroke-miterlimit="10" x1="65.285" y1="49.738" x2="63.863" y2="49.279"/>
		<path fill="none" stroke="#1D1D1B" stroke-width="0.5" stroke-linejoin="bevel" stroke-miterlimit="10" d="M65.285,49.738
			c0,0,0.826,5.27,0.797,6.046"/>
		
			<line fill="none" stroke="#1D1D1B" stroke-width="0.5" stroke-linejoin="bevel" stroke-miterlimit="10" x1="65.615" y1="49.298" x2="65.285" y2="49.738"/>
		<path fill="none" stroke="#1D1D1B" stroke-width="0.5" stroke-linejoin="bevel" stroke-miterlimit="10" d="M68.477,53.933
			c-0.247-1.135-0.581-3.705-1.266-4.113"/>
		<path fill="none" stroke="#1D1D1B" stroke-width="0.5" stroke-linejoin="bevel" stroke-miterlimit="10" d="M68.107,55.981
			c0,0,0.616-0.915,0.369-2.049"/>
		<path fill="none" stroke="#1D1D1B" stroke-width="0.5" stroke-linejoin="bevel" stroke-miterlimit="10" d="M66.082,55.784
			c0,0,1,1.407,2.025,0.197"/>
		<path fill="none" stroke="#1D1D1B" stroke-width="0.5" stroke-linejoin="bevel" stroke-miterlimit="10" d="M61.551,50.613
			c2.396,0.373,3.563,1.489,3.941,1.584"/>
		<path fill="none" stroke="#1D1D1B" stroke-width="0.5" stroke-linejoin="bevel" stroke-miterlimit="10" d="M65.492,52.198
			c0.053,0.013,0.111,0.029,0.17,0.045"/>
		<path fill="none" stroke="#1D1D1B" stroke-width="0.5" stroke-linejoin="bevel" stroke-miterlimit="10" d="M69.566,51.005
			c0,0,1.001,3.273,0.713,4.642"/>
		
			<line fill="none" stroke="#1D1D1B" stroke-width="0.5" stroke-linejoin="bevel" stroke-miterlimit="10" x1="69.927" y1="50.71" x2="69.566" y2="51.005"/>
		<path fill="none" stroke="#1D1D1B" stroke-width="0.5" stroke-linejoin="bevel" stroke-miterlimit="10" d="M72.479,53.913
			c-0.245-0.689-0.964-2.704-0.964-2.704"/>
		<path fill="none" stroke="#1D1D1B" stroke-width="0.5" stroke-linejoin="bevel" stroke-miterlimit="10" d="M72.534,55.677
			c0,0,0.192-1.075-0.056-1.764"/>
		<path fill="none" stroke="#1D1D1B" stroke-width="0.5" stroke-linejoin="bevel" stroke-miterlimit="10" d="M70.279,55.647
			c0,0,1.305,2.124,2.255,0.03"/>
		<path fill="none" stroke="#1D1D1B" stroke-width="0.5" stroke-linejoin="bevel" stroke-miterlimit="10" d="M73.371,51.998
			c0,0,1.146,2.224,0.805,2.719"/>
		
			<line fill="none" stroke="#1D1D1B" stroke-width="0.5" stroke-linejoin="bevel" stroke-miterlimit="10" x1="73.59" y1="51.704" x2="73.371" y2="51.998"/>
		<path fill="none" stroke="#1D1D1B" stroke-width="0.5" stroke-linejoin="bevel" stroke-miterlimit="10" d="M76.696,54.363
			c-0.233-0.491-1.606-2.242-1.606-2.242"/>
		<path fill="none" stroke="#1D1D1B" stroke-width="0.5" stroke-linejoin="bevel" stroke-miterlimit="10" d="M75.906,55.538
			c0.645-0.374,1.023-0.682,0.79-1.174"/>
		<path fill="none" stroke="#1D1D1B" stroke-width="0.5" stroke-linejoin="bevel" stroke-miterlimit="10" d="M74.176,54.717
			c0,0,1.087,1.194,1.73,0.821"/>
		<path fill="none" stroke="#1D1D1B" stroke-width="0.5" stroke-linejoin="bevel" stroke-miterlimit="10" d="M78.387,53.213
			c0,0,1.175,2.487,0.942,3.289"/>
		
			<line fill="none" stroke="#1D1D1B" stroke-width="0.5" stroke-linejoin="bevel" stroke-miterlimit="10" x1="78.594" y1="52.91" x2="78.387" y2="53.213"/>
		<path fill="none" stroke="#1D1D1B" stroke-width="0.5" stroke-linejoin="bevel" stroke-miterlimit="10" d="M81.498,55.727
			c-0.104-0.452-1.525-2.417-1.672-2.509"/>
		<path fill="none" stroke="#1D1D1B" stroke-width="0.5" stroke-linejoin="bevel" stroke-miterlimit="10" d="M80.848,57.129
			c0.792-0.273,0.754-0.949,0.65-1.402"/>
		<path fill="none" stroke="#1D1D1B" stroke-width="0.5" stroke-linejoin="bevel" stroke-miterlimit="10" d="M79.329,56.501
			c0,0,0.725,0.902,1.519,0.628"/>
		<path fill="none" stroke="#1D1D1B" stroke-width="0.5" stroke-linejoin="bevel" stroke-miterlimit="10" d="M82.684,53.962
			c0,0,1.598,2.152,1.103,2.617"/>
		
			<line fill="none" stroke="#1D1D1B" stroke-width="0.5" stroke-linejoin="bevel" stroke-miterlimit="10" x1="82.903" y1="53.701" x2="82.684" y2="53.962"/>
		
			<line fill="none" stroke="#1D1D1B" stroke-width="0.5" stroke-linejoin="bevel" stroke-miterlimit="10" x1="85.376" y1="54.747" x2="84.391" y2="53.909"/>
		<path fill="none" stroke="#1D1D1B" stroke-width="0.5" stroke-linejoin="bevel" stroke-miterlimit="10" d="M86.122,56.034
			c-0.091-0.256-0.11-0.83-0.746-1.287"/>
		<path fill="none" stroke="#1D1D1B" stroke-width="0.5" stroke-linejoin="bevel" stroke-miterlimit="10" d="M85.373,57.077
			c0.73-0.29,0.841-0.79,0.749-1.043"/>
		<path fill="none" stroke="#1D1D1B" stroke-width="0.5" stroke-linejoin="bevel" stroke-miterlimit="10" d="M83.786,56.579
			c0,0,0.856,0.788,1.587,0.498"/>
		
			<line fill="none" stroke="#1D1D1B" stroke-width="0.5" stroke-linejoin="bevel" stroke-miterlimit="10" x1="89.544" y1="54.809" x2="89.205" y2="55.071"/>
		<path fill="none" stroke="#1D1D1B" stroke-width="0.5" stroke-linejoin="bevel" stroke-miterlimit="10" d="M88.653,56.193
			c0.707-0.597,0.552-1.122,0.552-1.122"/>
		<path fill="none" stroke="#1D1D1B" stroke-width="0.5" stroke-linejoin="bevel" stroke-miterlimit="10" d="M89.554,56.862
			c-0.505-0.125-0.9-0.668-0.9-0.668"/>
		<path fill="none" stroke="#1D1D1B" stroke-width="0.5" stroke-linejoin="bevel" stroke-miterlimit="10" d="M90.957,56.361
			c-0.27,0.452-0.899,0.625-1.403,0.5"/>
		<path fill="none" stroke="#1D1D1B" stroke-width="0.5" stroke-linejoin="bevel" stroke-miterlimit="10" d="M91.384,55.518
			c-0.104,0.232-0.267,0.574-0.427,0.844"/>
		<path fill="none" stroke="#1D1D1B" stroke-width="0.5" stroke-linejoin="bevel" stroke-miterlimit="10" d="M98.02,72.844
			c10.533-3.483,23.309-6.282,23.717-10.054"/>
		<path fill="none" stroke="#1D1D1B" stroke-width="0.5" stroke-linejoin="bevel" stroke-miterlimit="10" d="M81.33,76.6
			c0,0,5.78-0.151,16.689-3.756"/>
		<path fill="none" stroke="#1D1D1B" stroke-width="0.5" stroke-linejoin="bevel" stroke-miterlimit="10" d="M64.939,78.641
			C67.389,78.253,81.33,76.6,81.33,76.6"/>
		<path fill="none" stroke="#1D1D1B" stroke-width="0.5" stroke-linejoin="bevel" stroke-miterlimit="10" d="M58.655,80.105
			c0,0,3.833-1.076,6.285-1.465"/>
		<path fill="none" stroke="#1D1D1B" stroke-width="0.5" stroke-linejoin="bevel" stroke-miterlimit="10" d="M39.113,86.389
			c2.532-0.75,19.542-6.283,19.542-6.283"/>
		<path fill="none" stroke="#1D1D1B" stroke-width="0.5" stroke-linejoin="bevel" stroke-miterlimit="10" d="M35.867,88.468
			c0,0,0.714-1.329,3.246-2.079"/>
		
			<line fill="none" stroke="#1D1D1B" stroke-width="0.5" stroke-linejoin="bevel" stroke-miterlimit="10" x1="33.809" y1="90.978" x2="35.867" y2="88.468"/>
		<path fill="none" stroke="#1D1D1B" stroke-width="0.5" stroke-linejoin="bevel" stroke-miterlimit="10" d="M31.366,91.849
			c0,0,0.656,0.351,2.443-0.871"/>
		<path fill="none" stroke="#1D1D1B" stroke-width="0.5" stroke-linejoin="bevel" stroke-miterlimit="10" d="M82.599,61.011
			c0,0-1.589,4.241-2.854,6.077"/>
		
			<rect x="59.295" y="54.563" transform="matrix(0.6082 -0.7938 0.7938 0.6082 -20.2871 69.051)" fill="none" stroke="#1D1D1B" stroke-width="0.5" stroke-linejoin="bevel" stroke-miterlimit="10" width="1.029" height="1.03"/>
		
			<line fill="none" stroke="#1D1D1B" stroke-width="0.5" stroke-linejoin="bevel" stroke-miterlimit="10" x1="68.258" y1="52.803" x2="69.507" y2="53.027"/>
		<path fill="none" stroke="#1D1D1B" stroke-width="0.5" stroke-linejoin="bevel" stroke-miterlimit="10" d="M69.507,53.027
			c0,0,0.231,0.042,0.579,0.044"/>
		<path fill="none" stroke="#1D1D1B" stroke-width="0.5" stroke-linejoin="bevel" stroke-miterlimit="10" d="M72.214,52.444
			c-0.067,0.052-0.138,0.1-0.207,0.143"/>
		<path fill="none" stroke="#1D1D1B" stroke-width="0.5" stroke-linejoin="bevel" stroke-miterlimit="10" d="M73.371,51.998
			c-0.796-0.056-1.157,0.447-1.157,0.447"/>
		
			<line fill="none" stroke="#1D1D1B" stroke-width="0.5" stroke-linejoin="bevel" stroke-miterlimit="10" x1="71.637" y1="51.55" x2="73.371" y2="51.998"/>
		<path fill="none" stroke="#1D1D1B" stroke-width="0.5" stroke-linejoin="bevel" stroke-miterlimit="10" d="M73.101,53.547
			c-0.181,0.184-0.384,0.331-0.594,0.453"/>
		<path fill="none" stroke="#1D1D1B" stroke-width="0.5" stroke-linejoin="bevel" stroke-miterlimit="10" d="M73.886,53.132
			c-0.568,0.127-0.785,0.415-0.785,0.415"/>
		
			<line fill="none" stroke="#1D1D1B" stroke-width="0.5" stroke-linejoin="bevel" stroke-miterlimit="10" x1="69.424" y1="54.438" x2="68.52" y2="54.216"/>
		<path fill="none" stroke="#1D1D1B" stroke-width="0.5" stroke-linejoin="bevel" stroke-miterlimit="10" d="M70.305,54.506
			c-0.518-0.002-0.881-0.068-0.881-0.068"/>
		
			<line fill="none" stroke="#1D1D1B" stroke-width="0.5" stroke-linejoin="bevel" stroke-miterlimit="10" x1="65.847" y1="53.561" x2="64.646" y2="53.268"/>
		<path fill="none" stroke="#1D1D1B" stroke-width="0.5" stroke-linejoin="bevel" stroke-miterlimit="10" d="M76.396,53.522
			c-0.119-0.048-0.233-0.091-0.344-0.13"/>
		<path fill="none" stroke="#1D1D1B" stroke-width="0.5" stroke-linejoin="bevel" stroke-miterlimit="10" d="M78.898,54.428
			c-0.638-0.199-1.475-0.488-2.502-0.906"/>
		<path fill="none" stroke="#1D1D1B" stroke-width="0.5" stroke-linejoin="bevel" stroke-miterlimit="10" d="M83.513,55.264
			c-0.926-0.051-1.811-0.186-2.416-0.295"/>
		<path fill="none" stroke="#1D1D1B" stroke-width="0.5" stroke-linejoin="bevel" stroke-miterlimit="10" d="M86.151,55.064
			c-0.119,0.035-0.244,0.062-0.37,0.086"/>
		
			<line fill="none" stroke="#1D1D1B" stroke-width="0.5" stroke-linejoin="bevel" stroke-miterlimit="10" x1="87.486" y1="54.76" x2="86.151" y2="55.064"/>
	</g>
	<g>
		
			<rect x="59.295" y="54.563" transform="matrix(0.6082 -0.7938 0.7938 0.6082 -20.2871 69.051)" fill="none" stroke="#1D1D1B" stroke-width="0.5" stroke-linejoin="bevel" stroke-miterlimit="10" width="1.029" height="1.03"/>
	</g>
</g>
</svg>
