<?xml version="1.0" encoding="utf-8"?>
<!-- Generator: Adobe Illustrator 15.0.0, SVG Export Plug-In . SVG Version: 6.00 Build 0)  -->
<!DOCTYPE svg PUBLIC "-//W3C//DTD SVG 1.1//EN" "http://www.w3.org/Graphics/SVG/1.1/DTD/svg11.dtd">
<svg version="1.1" id="Layer_1" xmlns="http://www.w3.org/2000/svg" xmlns:xlink="http://www.w3.org/1999/xlink" x="0px" y="0px"
	 width="141.73px" height="141.73px" viewBox="0 0 141.73 141.73" enable-background="new 0 0 141.73 141.73" xml:space="preserve">
<rect id="Fond_noir" width="141.73" height="141.73"/>
<path id="Cercle_contour" fill="none" stroke="#FFFFFF" stroke-width="0.5" stroke-miterlimit="10" d="M136.896,66.219
	C134.33,29.751,102.688,2.268,66.22,4.834C44.571,6.357,26.09,18.126,15.18,35.069c10.438,5.786,23.643,2.262,34.639,7.034
	c2.576,1.119,4.834,2.806,6.648,4.853c1.405,0.032,3.839,0.373,7.414,1.854l1.422,0.458l0.33-0.44l1.596,0.522
	c0.057,0.034,0.11,0.086,0.162,0.147c0.014,0.016,0.027,0.033,0.039,0.05c0.047,0.061,0.09,0.128,0.132,0.206
	c0.005,0.009,0.011,0.017,0.016,0.026c0.042,0.083,0.084,0.178,0.123,0.278c-0.003-0.007-0.005-0.016-0.008-0.022l1.892,0.5
	l0.36-0.294l1.588,0.499c0,0,0.241,0.676,0.492,1.378c0.069-0.044,0.14-0.091,0.207-0.143c0,0,0.361-0.502,1.157-0.447l0.219-0.293
	l1.5,0.417c0,0,0.102,0.126,0.25,0.322l3.068,0.739l0.186-0.272l1.232,0.308c0.038,0.023,0.159,0.171,0.319,0.382l2.538,0.362
	l0.22-0.261l1.487,0.208l0.471,0.4l2.332,0.4l-1.882-0.324l3.391,0.582l0.503,0.103l0.339-0.262l1.957,0.44
	c0,0-0.046,0.11-0.117,0.268l3.617,0.74l0.769,0.215l3.185-0.102l0.624-0.107l0.469,0.35c0,0,10.451-1.428,15.825-0.874l1.188-0.223
	c0,0,2.818,1.124,4.459,3.874l0.198-0.013l0.719,2.016l-0.325,0.621l0.231,0.648c0,0,0.18,1.548-0.426,2.512
	c-0.606,0.964-0.606,0.964-0.606,0.964l-0.432,0.241c0,0-0.296,1.026-1.451,1.897c-1.154,0.874-2.551,1.898-2.551,1.898l-0.75,0.459
	l-2.765,1.679l-0.968,0.517c-0.396,0.256-2.648,1.52-2.648,1.52l-5.943,3.418c-0.373,0.162-2.227,0.852-2.227,0.852l-3.47,1.295
	l-3.334,1.162l-4.578,1.75l-0.399,0.18l-3.011,1.074L58.736,93.707L54.39,95.23l-2.929,0.9c-0.894,0.32-12.467,4.074-12.467,4.074
	l-0.515,0.012l-5.014-1.719l-0.268-0.748l-0.789-2.211l-0.668-1.871l-0.34-0.953l-0.279-0.783l0.262-0.553l-0.133-0.377
	c0,0-0.82-0.473-1.234-1.627l-1.02-2.857c0,0-0.725-4.076-0.588-5.084l-0.108-0.844l-0.619-1.736l-0.147-1.596l-0.248-3.594
	l-0.279-0.781c0,0-1.17-3.495,0.182-6.047c0,0-0.315-0.884,0.854-1.801l1.729-1.384c0,0,1.104-1.314,3.974,0.384
	c2.869,1.7,4.69,3.044,6.45,3.029c1.401-0.012,4.827-0.56,7.677-3.49c-0.896-0.332-1.735-0.777-2.464-1.326
	c-3.095,0.153-6.219-0.688-8.607-2.681c-2.617-0.042-5.73-0.12-7.729-1.91c-4.952-0.423-9.131-2.579-9.889-7.563
	c-2.109-1.609-3.69-3.833-4.042-6.55c-1.191-0.803-2.307-1.721-3.251-2.75C6.592,51.161,3.957,63.053,4.834,75.512
	c2.566,36.467,34.209,63.949,70.678,61.385C111.979,134.33,139.463,102.688,136.896,66.219z"/>
<g id="Textes">
	<text transform="matrix(1 0 0 1 33.0176 120.374)" fill="#FFFFFF" font-family="'BrushScriptStd'" font-size="20">Pops One</text>
	<text transform="matrix(1 0 0 1 32.4692 26.9209)" fill="#FFFFFF" font-family="'BrushScriptStd'" font-size="16">Sneaker</text>
	<text transform="matrix(1 0 0 1 61.8906 40.105)" fill="#FFFFFF" font-family="'BrushScriptStd'" font-size="16">Custom</text>
</g>
<g id="Sneaker">
	<path fill="none" stroke="#FFFFFF" stroke-width="0.5" stroke-linejoin="bevel" stroke-miterlimit="10" d="M122.129,61.545
		l0.325-0.621l-0.719-2.016l-0.198,0.013c-1.641-2.75-4.459-3.874-4.459-3.874l-1.188,0.223c-5.374-0.554-15.825,0.874-15.825,0.874
		l-0.469-0.35l-0.624,0.107l-3.185,0.102l-0.769-0.215l-3.617-0.74c0.071-0.158,0.117-0.268,0.117-0.268l-1.957-0.44l-0.339,0.262
		l-0.503-0.103l-3.391-0.582l1.882,0.324l-2.332-0.4l-0.471-0.4l-1.487-0.208l-0.22,0.261l-2.538-0.362
		c-0.16-0.211-0.281-0.359-0.319-0.382l-1.232-0.308l-0.186,0.272l-3.068-0.739c-0.148-0.195-0.25-0.322-0.25-0.322l-1.5-0.417
		l-0.219,0.293c-0.796-0.056-1.157,0.447-1.157,0.447c-0.067,0.052-0.138,0.099-0.207,0.143c-0.251-0.703-0.492-1.378-0.492-1.378
		l-1.588-0.499l-0.36,0.294l-1.892-0.5c0.003,0.007,0.005,0.016,0.008,0.022c-0.039-0.1-0.081-0.194-0.123-0.278
		c-0.005-0.01-0.011-0.017-0.016-0.026c-0.042-0.078-0.085-0.146-0.132-0.206c-0.012-0.017-0.025-0.035-0.039-0.05
		c-0.052-0.061-0.105-0.114-0.162-0.147l-1.596-0.522l-0.33,0.44l-1.422-0.458c-3.575-1.482-6.009-1.823-7.414-1.854
		c-1.814-2.047-4.072-3.734-6.648-4.853c-12.302-5.338-27.372-0.284-38.234-9.511c-0.197-0.168-0.412-0.042-0.481,0.139
		c-0.084,0.01-0.158,0.076-0.155,0.19c0.039,0.923,0.229,1.8,0.536,2.631c-0.611-0.419-1.215-0.87-1.804-1.37
		C9.483,34.014,9.269,34.14,9.2,34.321c-0.085,0.01-0.159,0.076-0.155,0.19c0.157,3.808,2.85,6.849,6.095,9.035
		c0.353,2.717,1.933,4.94,4.042,6.55c0.758,4.983,4.937,7.139,9.889,7.563c1.998,1.79,5.111,1.868,7.729,1.91
		c2.389,1.992,5.513,2.834,8.607,2.681c0.729,0.548,1.568,0.994,2.464,1.326c-2.85,2.93-6.275,3.479-7.677,3.49
		c-1.76,0.015-3.581-1.329-6.45-3.029c-2.869-1.698-3.974-0.384-3.974-0.384l-1.729,1.384c-1.169,0.917-0.854,1.801-0.854,1.801
		c-1.352,2.553-0.182,6.047-0.182,6.047l0.279,0.781l0.248,3.594l0.147,1.596l0.619,1.736l0.108,0.844
		c-0.137,1.008,0.588,5.084,0.588,5.084l1.02,2.857c0.414,1.154,1.234,1.627,1.234,1.627l0.133,0.377l-0.262,0.553l0.279,0.783
		l0.34,0.953l0.668,1.871l0.789,2.211l0.268,0.748l5.014,1.719l0.515-0.012c0,0,11.573-3.754,12.467-4.074l2.929-0.9l4.347-1.523
		l28.065-10.096l3.011-1.074l0.399-0.18l4.578-1.75l3.334-1.162l3.47-1.295c0,0,1.854-0.689,2.227-0.852l5.943-3.418
		c0,0,2.252-1.264,2.648-1.52l0.968-0.517l2.765-1.679l0.75-0.459c0,0,1.396-1.025,2.551-1.898c1.155-0.872,1.451-1.897,1.451-1.897
		l0.432-0.241c0,0,0,0,0.606-0.964c0.605-0.964,0.426-2.512,0.426-2.512L122.129,61.545z"/>
	<path id="Aile1_5_" fill="none" stroke="#FFFFFF" stroke-width="0.5" stroke-linejoin="bevel" stroke-miterlimit="10" d="
		M9.681,34.182c10.861,9.227,25.932,4.172,38.234,9.51c9.457,4.109,14.684,15.835,9.102,25.173c-0.107,0.18-0.375,0.106-0.381-0.065
		c-0.092,0.111-0.295,0.059-0.282-0.12c0.102-1.954-0.085-3.678-0.886-5.46c-3.033,1.753-7.327,1.088-10.061-0.972
		c-3.095,0.153-6.219-0.688-8.607-2.681c-2.617-0.042-5.73-0.12-7.729-1.91c-4.952-0.423-9.131-2.579-9.889-7.563
		c-2.109-1.609-3.69-3.833-4.042-6.55c-3.245-2.186-5.938-5.227-6.095-9.035c-0.004-0.114,0.07-0.18,0.155-0.19
		C9.269,34.14,9.483,34.014,9.681,34.182z"/>
	<g>
		<path fill="none" stroke="#FFFFFF" stroke-width="0.5" stroke-linejoin="bevel" stroke-miterlimit="10" d="M52.131,66.034
			c0,0-4.36,4.337-12.339,5.402"/>
		<path fill="none" stroke="#FFFFFF" stroke-width="0.5" stroke-linejoin="bevel" stroke-miterlimit="10" d="M55.185,63.373
			c-0.936,0.85-1.951,1.739-3.054,2.661"/>
		<path fill="none" stroke="#FFFFFF" stroke-width="0.5" stroke-linejoin="bevel" stroke-miterlimit="10" d="M64.665,52.798
			c0,0-1.471,2.516-5.406,6.622"/>
		<path fill="none" stroke="#FFFFFF" stroke-width="0.5" stroke-linejoin="bevel" stroke-miterlimit="10" d="M60.784,50.845
			c0,0,2.449,0.737,3.881,1.953"/>
		<path fill="none" stroke="#FFFFFF" stroke-width="0.5" stroke-linejoin="bevel" stroke-miterlimit="10" d="M57.093,52.137
			c1.104-0.967,2.381-1.612,3.691-1.292"/>
		<path fill="none" stroke="#FFFFFF" stroke-width="0.5" stroke-linejoin="bevel" stroke-miterlimit="10" d="M45.7,66.393
			c1.139-0.689,2.174-1.571,3.092-2.521"/>
		<path fill="none" stroke="#FFFFFF" stroke-width="0.5" stroke-linejoin="bevel" stroke-miterlimit="10" d="M37.218,67.771
			c0,0,3.53,1.616,8.482-1.378"/>
		<path fill="none" stroke="#FFFFFF" stroke-width="0.5" stroke-linejoin="bevel" stroke-miterlimit="10" d="M32.009,64.458
			c1.408,0.72,5.209,3.313,5.209,3.313"/>
		<path fill="none" stroke="#FFFFFF" stroke-width="0.5" stroke-linejoin="bevel" stroke-miterlimit="10" d="M29.521,64.689
			c0,0,1.079-0.952,2.487-0.231"/>
		
			<line fill="none" stroke="#FFFFFF" stroke-width="0.5" stroke-linejoin="bevel" stroke-miterlimit="10" x1="27.188" y1="66.835" x2="29.521" y2="64.689"/>
		
			<line fill="none" stroke="#FFFFFF" stroke-width="0.5" stroke-linejoin="bevel" stroke-miterlimit="10" x1="52.466" y1="74.602" x2="54.004" y2="76.008"/>
		<path fill="none" stroke="#FFFFFF" stroke-width="0.5" stroke-linejoin="bevel" stroke-miterlimit="10" d="M48.903,72.576
			c0,0,1.743,0.258,3.563,2.025"/>
		<path fill="none" stroke="#FFFFFF" stroke-width="0.5" stroke-linejoin="bevel" stroke-miterlimit="10" d="M40.382,71.475
			c4.417,0.314,8.521,1.101,8.521,1.101"/>
		<path fill="none" stroke="#FFFFFF" stroke-width="0.5" stroke-linejoin="bevel" stroke-miterlimit="10" d="M30.106,71.268
			c1.186,0.056,5.885-0.105,10.275,0.207"/>
		<path fill="none" stroke="#FFFFFF" stroke-width="0.5" stroke-linejoin="bevel" stroke-miterlimit="10" d="M27.35,72.252
			c0,0,0.378-1.092,2.757-0.984"/>
		
			<line fill="none" stroke="#FFFFFF" stroke-width="0.5" stroke-linejoin="bevel" stroke-miterlimit="10" x1="27.007" y1="72.883" x2="27.35" y2="72.252"/>
		<path fill="none" stroke="#FFFFFF" stroke-width="0.5" stroke-linejoin="bevel" stroke-miterlimit="10" d="M32.368,81.582
			c-3.39,0.713-3.371,4.936-3.371,4.936"/>
		<path fill="none" stroke="#FFFFFF" stroke-width="0.5" stroke-linejoin="bevel" stroke-miterlimit="10" d="M54.004,76.008
			c-2.869,1.311-21.636,5.574-21.636,5.574"/>
		<path fill="none" stroke="#FFFFFF" stroke-width="0.5" stroke-linejoin="bevel" stroke-miterlimit="10" d="M72.638,70.679
			c0,0-15.766,4.017-18.634,5.329"/>
		<path fill="none" stroke="#FFFFFF" stroke-width="0.5" stroke-linejoin="bevel" stroke-miterlimit="10" d="M79.999,66.426
			c-4.56,3.772-7.361,4.253-7.361,4.253"/>
		
			<line fill="none" stroke="#FFFFFF" stroke-width="0.5" stroke-linejoin="bevel" stroke-miterlimit="10" x1="84.042" y1="63.676" x2="79.999" y2="66.426"/>
		<path fill="none" stroke="#FFFFFF" stroke-width="0.5" stroke-linejoin="bevel" stroke-miterlimit="10" d="M88.183,65.391
			c-1.321-3.7-4.141-1.715-4.141-1.715"/>
		<path fill="none" stroke="#FFFFFF" stroke-width="0.5" stroke-linejoin="bevel" stroke-miterlimit="10" d="M93.27,66.211
			c-0.671,0.701-3.766,2.879-5.087-0.82"/>
		
			<line fill="none" stroke="#FFFFFF" stroke-width="0.5" stroke-linejoin="bevel" stroke-miterlimit="10" x1="94.743" y1="64.65" x2="93.27" y2="66.211"/>
		<path fill="none" stroke="#FFFFFF" stroke-width="0.5" stroke-linejoin="bevel" stroke-miterlimit="10" d="M97.287,62.746
			c-1.86,0.702-2.544,1.904-2.544,1.904"/>
		<path fill="none" stroke="#FFFFFF" stroke-width="0.5" stroke-linejoin="bevel" stroke-miterlimit="10" d="M115.891,55.271
			c5.563,0.363-18.604,7.475-18.604,7.475"/>
		<path fill="none" stroke="#FFFFFF" stroke-width="0.5" stroke-linejoin="bevel" stroke-miterlimit="10" d="M65.065,85.162
			c-0.324-0.908-1.324-1.383-2.232-1.059"/>
		<path fill="none" stroke="#FFFFFF" stroke-width="0.5" stroke-linejoin="bevel" stroke-miterlimit="10" d="M64.007,87.395
			c0.909-0.324,1.383-1.324,1.059-2.232"/>
		
			<line fill="none" stroke="#FFFFFF" stroke-width="0.5" stroke-linejoin="bevel" stroke-miterlimit="10" x1="48.938" y1="92.641" x2="64.007" y2="87.395"/>
		<path fill="none" stroke="#FFFFFF" stroke-width="0.5" stroke-linejoin="bevel" stroke-miterlimit="10" d="M46.704,91.582
			c0.325,0.91,1.324,1.385,2.234,1.059"/>
		<path fill="none" stroke="#FFFFFF" stroke-width="0.5" stroke-linejoin="bevel" stroke-miterlimit="10" d="M47.764,89.35
			c-0.909,0.324-1.383,1.324-1.06,2.232"/>
		
			<line fill="none" stroke="#FFFFFF" stroke-width="0.5" stroke-linejoin="bevel" stroke-miterlimit="10" x1="62.833" y1="84.104" x2="47.764" y2="89.35"/>
		<path fill="none" stroke="#FFFFFF" stroke-width="0.5" stroke-linejoin="bevel" stroke-miterlimit="10" d="M51.987,89.656
			c0.293,0.818-0.135,1.719-0.952,2.012"/>
		<path fill="none" stroke="#FFFFFF" stroke-width="0.5" stroke-linejoin="bevel" stroke-miterlimit="10" d="M49.978,88.705
			c0.818-0.293,1.719,0.135,2.01,0.951"/>
		<path fill="none" stroke="#FFFFFF" stroke-width="0.5" stroke-linejoin="bevel" stroke-miterlimit="10" d="M49.026,90.715
			c-0.293-0.818,0.135-1.719,0.951-2.01"/>
		<path fill="none" stroke="#FFFFFF" stroke-width="0.5" stroke-linejoin="bevel" stroke-miterlimit="10" d="M51.035,91.668
			c-0.817,0.291-1.718-0.135-2.009-0.953"/>
		<path fill="none" stroke="#FFFFFF" stroke-width="0.5" stroke-linejoin="bevel" stroke-miterlimit="10" d="M57.89,87.658
			c0.292,0.818-0.134,1.719-0.953,2.01"/>
		<path fill="none" stroke="#FFFFFF" stroke-width="0.5" stroke-linejoin="bevel" stroke-miterlimit="10" d="M55.88,86.705
			c0.818-0.291,1.717,0.135,2.01,0.953"/>
		<path fill="none" stroke="#FFFFFF" stroke-width="0.5" stroke-linejoin="bevel" stroke-miterlimit="10" d="M54.928,88.715
			c-0.292-0.816,0.134-1.719,0.952-2.01"/>
		<path fill="none" stroke="#FFFFFF" stroke-width="0.5" stroke-linejoin="bevel" stroke-miterlimit="10" d="M56.937,89.668
			c-0.817,0.291-1.717-0.137-2.009-0.953"/>
		<path fill="none" stroke="#FFFFFF" stroke-width="0.5" stroke-linejoin="bevel" stroke-miterlimit="10" d="M63.765,85.662
			c0.291,0.816-0.135,1.717-0.953,2.01"/>
		<path fill="none" stroke="#FFFFFF" stroke-width="0.5" stroke-linejoin="bevel" stroke-miterlimit="10" d="M61.755,84.709
			c0.817-0.293,1.718,0.135,2.01,0.953"/>
		<path fill="none" stroke="#FFFFFF" stroke-width="0.5" stroke-linejoin="bevel" stroke-miterlimit="10" d="M60.802,86.719
			c-0.292-0.816,0.135-1.717,0.953-2.01"/>
		<path fill="none" stroke="#FFFFFF" stroke-width="0.5" stroke-linejoin="bevel" stroke-miterlimit="10" d="M62.812,87.672
			c-0.817,0.293-1.718-0.137-2.01-0.953"/>
		<path fill="none" stroke="#FFFFFF" stroke-width="0.5" stroke-linejoin="bevel" stroke-miterlimit="10" d="M36.47,98.338
			c0,0,1.48,0.391,4.283-0.57"/>
		
			<line fill="none" stroke="#FFFFFF" stroke-width="0.5" stroke-linejoin="bevel" stroke-miterlimit="10" x1="33.198" y1="97.75" x2="36.47" y2="98.338"/>
		<path fill="none" stroke="#FFFFFF" stroke-width="0.5" stroke-linejoin="bevel" stroke-miterlimit="10" d="M105.232,74.904
			c2.846-1.477,16.553-8.745,16.525-12.148"/>
		<path fill="none" stroke="#FFFFFF" stroke-width="0.5" stroke-linejoin="bevel" stroke-miterlimit="10" d="M101.976,76.527
			c0,0,0.408-0.146,3.257-1.623"/>
		<path fill="none" stroke="#FFFFFF" stroke-width="0.5" stroke-linejoin="bevel" stroke-miterlimit="10" d="M40.753,97.768
			c2.803-0.963,61.223-21.24,61.223-21.24"/>
		
			<line fill="none" stroke="#FFFFFF" stroke-width="0.5" stroke-linejoin="bevel" stroke-miterlimit="10" x1="121.758" y1="62.756" x2="121.735" y2="58.909"/>
		<path fill="none" stroke="#FFFFFF" stroke-width="0.5" stroke-linejoin="bevel" stroke-miterlimit="10" d="M97.651,57.323
			c0,0,1.905-0.662,1.945-1.529"/>
		
			<line fill="none" stroke="#FFFFFF" stroke-width="0.5" stroke-linejoin="bevel" stroke-miterlimit="10" x1="93.612" y1="59.224" x2="97.651" y2="57.323"/>
		<path fill="none" stroke="#FFFFFF" stroke-width="0.5" stroke-linejoin="bevel" stroke-miterlimit="10" d="M89.163,66.968
			c-0.018-0.086-0.973-4.934,4.449-7.744"/>
		<path fill="none" stroke="#FFFFFF" stroke-width="0.5" stroke-linejoin="bevel" stroke-miterlimit="10" d="M72.638,70.679
			c0,0,1.701-6.627,9.979-10.137"/>
		<path fill="none" stroke="#FFFFFF" stroke-width="0.5" stroke-linejoin="bevel" stroke-miterlimit="10" d="M91.507,58.35
			c4.102-1.163,1.129-3.05,1.126-3.05"/>
		<path fill="none" stroke="#FFFFFF" stroke-width="0.5" stroke-linejoin="bevel" stroke-miterlimit="10" d="M82.617,60.542
			c4.106-1.926,4.79-1.029,8.89-2.192"/>
		<path fill="none" stroke="#FFFFFF" stroke-width="0.5" stroke-linejoin="bevel" stroke-miterlimit="10" d="M60.437,55.854
			c0.682-0.299,1.027-1.079,0.773-1.791"/>
		<path fill="none" stroke="#FFFFFF" stroke-width="0.5" stroke-linejoin="bevel" stroke-miterlimit="10" d="M59.402,56.342
			c0.103-0.167,0.392-0.295,0.639-0.377l0.302-0.071"/>
		<path fill="none" stroke="#FFFFFF" stroke-width="0.5" stroke-linejoin="bevel" stroke-miterlimit="10" d="M59.032,57.584
			c0.037-0.21,0.221-1,0.37-1.243"/>
		<path fill="none" stroke="#FFFFFF" stroke-width="0.5" stroke-linejoin="bevel" stroke-miterlimit="10" d="M58.438,54.403
			c-0.012,0.102-0.043,0.324-0.107,0.526"/>
		<path fill="none" stroke="#FFFFFF" stroke-width="0.5" stroke-linejoin="bevel" stroke-miterlimit="10" d="M59.38,53.196
			c-0.519,0.186-0.863,0.639-0.936,1.15"/>
		<path fill="none" stroke="#FFFFFF" stroke-width="0.5" stroke-linejoin="bevel" stroke-miterlimit="10" d="M61.21,54.063
			c-0.266-0.744-1.084-1.132-1.83-0.867"/>
		<path fill="none" stroke="#FFFFFF" stroke-width="0.5" stroke-linejoin="bevel" stroke-miterlimit="10" d="M57.031,51.073
			c1.571-0.753,2.143-1.303,4.538-0.93"/>
		<path fill="none" stroke="#FFFFFF" stroke-width="0.5" stroke-linejoin="bevel" stroke-miterlimit="10" d="M56.626,51.329
			c0.145-0.109,0.281-0.196,0.405-0.255"/>
		<path fill="none" stroke="#FFFFFF" stroke-width="0.5" stroke-linejoin="bevel" stroke-miterlimit="10" d="M52.057,56.943"/>
		<path fill="none" stroke="#FFFFFF" stroke-width="0.5" stroke-linejoin="bevel" stroke-miterlimit="10" d="M54.206,47.172
			c-0.23,0.023-0.447,0.142-0.645,0.317"/>
		
			<line fill="none" stroke="#FFFFFF" stroke-width="0.5" stroke-linejoin="bevel" stroke-miterlimit="10" x1="55.001" y1="47.061" x2="54.206" y2="47.172"/>
		<path fill="none" stroke="#FFFFFF" stroke-width="0.5" stroke-linejoin="bevel" stroke-miterlimit="10" d="M63.882,48.81
			c-6.078-2.519-8.881-1.749-8.881-1.749"/>
		
			<line fill="none" stroke="#FFFFFF" stroke-width="0.5" stroke-linejoin="bevel" stroke-miterlimit="10" x1="65.304" y1="49.268" x2="63.882" y2="48.81"/>
		<path fill="none" stroke="#FFFFFF" stroke-width="0.5" stroke-linejoin="bevel" stroke-miterlimit="10" d="M65.304,49.268
			c0,0,0.826,5.27,0.797,6.046"/>
		
			<line fill="none" stroke="#FFFFFF" stroke-width="0.5" stroke-linejoin="bevel" stroke-miterlimit="10" x1="65.634" y1="48.828" x2="65.304" y2="49.268"/>
		<path fill="none" stroke="#FFFFFF" stroke-width="0.5" stroke-linejoin="bevel" stroke-miterlimit="10" d="M68.495,53.463
			c-0.247-1.135-0.581-3.705-1.266-4.113"/>
		<path fill="none" stroke="#FFFFFF" stroke-width="0.5" stroke-linejoin="bevel" stroke-miterlimit="10" d="M68.126,55.512
			c0,0,0.616-0.915,0.369-2.049"/>
		<path fill="none" stroke="#FFFFFF" stroke-width="0.5" stroke-linejoin="bevel" stroke-miterlimit="10" d="M66.101,55.314
			c0,0,1,1.407,2.025,0.197"/>
		<path fill="none" stroke="#FFFFFF" stroke-width="0.5" stroke-linejoin="bevel" stroke-miterlimit="10" d="M61.569,50.144
			c2.396,0.373,3.563,1.489,3.941,1.584"/>
		<path fill="none" stroke="#FFFFFF" stroke-width="0.5" stroke-linejoin="bevel" stroke-miterlimit="10" d="M65.511,51.728
			c0.053,0.013,0.111,0.029,0.17,0.045"/>
		<path fill="none" stroke="#FFFFFF" stroke-width="0.5" stroke-linejoin="bevel" stroke-miterlimit="10" d="M69.585,50.535
			c0,0,1.001,3.273,0.713,4.642"/>
		
			<line fill="none" stroke="#FFFFFF" stroke-width="0.5" stroke-linejoin="bevel" stroke-miterlimit="10" x1="69.945" y1="50.241" x2="69.585" y2="50.535"/>
		<path fill="none" stroke="#FFFFFF" stroke-width="0.5" stroke-linejoin="bevel" stroke-miterlimit="10" d="M72.497,53.443
			c-0.245-0.689-0.964-2.704-0.964-2.704"/>
		<path fill="none" stroke="#FFFFFF" stroke-width="0.5" stroke-linejoin="bevel" stroke-miterlimit="10" d="M72.553,55.207
			c0,0,0.192-1.075-0.056-1.764"/>
		<path fill="none" stroke="#FFFFFF" stroke-width="0.5" stroke-linejoin="bevel" stroke-miterlimit="10" d="M70.298,55.177
			c0,0,1.305,2.124,2.255,0.03"/>
		<path fill="none" stroke="#FFFFFF" stroke-width="0.5" stroke-linejoin="bevel" stroke-miterlimit="10" d="M73.39,51.528
			c0,0,1.146,2.224,0.805,2.719"/>
		
			<line fill="none" stroke="#FFFFFF" stroke-width="0.5" stroke-linejoin="bevel" stroke-miterlimit="10" x1="73.608" y1="51.234" x2="73.39" y2="51.528"/>
		<path fill="none" stroke="#FFFFFF" stroke-width="0.5" stroke-linejoin="bevel" stroke-miterlimit="10" d="M76.715,53.894
			c-0.233-0.491-1.606-2.242-1.606-2.242"/>
		<path fill="none" stroke="#FFFFFF" stroke-width="0.5" stroke-linejoin="bevel" stroke-miterlimit="10" d="M75.925,55.068
			c0.645-0.374,1.023-0.682,0.79-1.174"/>
		<path fill="none" stroke="#FFFFFF" stroke-width="0.5" stroke-linejoin="bevel" stroke-miterlimit="10" d="M74.194,54.247
			c0,0,1.087,1.194,1.73,0.821"/>
		<path fill="none" stroke="#FFFFFF" stroke-width="0.5" stroke-linejoin="bevel" stroke-miterlimit="10" d="M78.405,52.743
			c0,0,1.175,2.487,0.942,3.289"/>
		
			<line fill="none" stroke="#FFFFFF" stroke-width="0.5" stroke-linejoin="bevel" stroke-miterlimit="10" x1="78.612" y1="52.44" x2="78.405" y2="52.743"/>
		<path fill="none" stroke="#FFFFFF" stroke-width="0.5" stroke-linejoin="bevel" stroke-miterlimit="10" d="M81.517,55.257
			c-0.104-0.452-1.525-2.417-1.672-2.509"/>
		<path fill="none" stroke="#FFFFFF" stroke-width="0.5" stroke-linejoin="bevel" stroke-miterlimit="10" d="M80.866,56.66
			c0.792-0.273,0.754-0.949,0.65-1.402"/>
		<path fill="none" stroke="#FFFFFF" stroke-width="0.5" stroke-linejoin="bevel" stroke-miterlimit="10" d="M79.348,56.032
			c0,0,0.725,0.902,1.519,0.628"/>
		<path fill="none" stroke="#FFFFFF" stroke-width="0.5" stroke-linejoin="bevel" stroke-miterlimit="10" d="M82.702,53.492
			c0,0,1.598,2.152,1.103,2.617"/>
		
			<line fill="none" stroke="#FFFFFF" stroke-width="0.5" stroke-linejoin="bevel" stroke-miterlimit="10" x1="82.922" y1="53.231" x2="82.702" y2="53.492"/>
		
			<line fill="none" stroke="#FFFFFF" stroke-width="0.5" stroke-linejoin="bevel" stroke-miterlimit="10" x1="85.395" y1="54.277" x2="84.409" y2="53.439"/>
		<path fill="none" stroke="#FFFFFF" stroke-width="0.5" stroke-linejoin="bevel" stroke-miterlimit="10" d="M86.141,55.564
			c-0.091-0.256-0.11-0.83-0.746-1.287"/>
		<path fill="none" stroke="#FFFFFF" stroke-width="0.5" stroke-linejoin="bevel" stroke-miterlimit="10" d="M85.392,56.607
			c0.73-0.29,0.841-0.79,0.749-1.043"/>
		<path fill="none" stroke="#FFFFFF" stroke-width="0.5" stroke-linejoin="bevel" stroke-miterlimit="10" d="M83.805,56.109
			c0,0,0.856,0.788,1.587,0.498"/>
		
			<line fill="none" stroke="#FFFFFF" stroke-width="0.5" stroke-linejoin="bevel" stroke-miterlimit="10" x1="89.563" y1="54.339" x2="89.224" y2="54.602"/>
		<path fill="none" stroke="#FFFFFF" stroke-width="0.5" stroke-linejoin="bevel" stroke-miterlimit="10" d="M88.672,55.724
			c0.707-0.597,0.552-1.122,0.552-1.122"/>
		<path fill="none" stroke="#FFFFFF" stroke-width="0.5" stroke-linejoin="bevel" stroke-miterlimit="10" d="M89.572,56.392
			c-0.505-0.125-0.9-0.668-0.9-0.668"/>
		<path fill="none" stroke="#FFFFFF" stroke-width="0.5" stroke-linejoin="bevel" stroke-miterlimit="10" d="M90.976,55.892
			c-0.27,0.452-0.899,0.625-1.403,0.5"/>
		<path fill="none" stroke="#FFFFFF" stroke-width="0.5" stroke-linejoin="bevel" stroke-miterlimit="10" d="M91.402,55.048
			c-0.104,0.232-0.267,0.574-0.427,0.844"/>
		<path fill="none" stroke="#FFFFFF" stroke-width="0.5" stroke-linejoin="bevel" stroke-miterlimit="10" d="M98.038,72.373
			c10.533-3.482,23.309-6.281,23.717-10.053"/>
		<path fill="none" stroke="#FFFFFF" stroke-width="0.5" stroke-linejoin="bevel" stroke-miterlimit="10" d="M81.349,76.129
			c0,0,5.78-0.15,16.689-3.756"/>
		<path fill="none" stroke="#FFFFFF" stroke-width="0.5" stroke-linejoin="bevel" stroke-miterlimit="10" d="M64.958,78.17
			c2.449-0.387,16.391-2.041,16.391-2.041"/>
		<path fill="none" stroke="#FFFFFF" stroke-width="0.5" stroke-linejoin="bevel" stroke-miterlimit="10" d="M58.673,79.635
			c0,0,3.834-1.076,6.285-1.465"/>
		<path fill="none" stroke="#FFFFFF" stroke-width="0.5" stroke-linejoin="bevel" stroke-miterlimit="10" d="M39.132,85.918
			c2.531-0.75,19.541-6.283,19.541-6.283"/>
		<path fill="none" stroke="#FFFFFF" stroke-width="0.5" stroke-linejoin="bevel" stroke-miterlimit="10" d="M35.886,87.998
			c0,0,0.714-1.33,3.246-2.08"/>
		
			<line fill="none" stroke="#FFFFFF" stroke-width="0.5" stroke-linejoin="bevel" stroke-miterlimit="10" x1="33.827" y1="90.508" x2="35.886" y2="87.998"/>
		<path fill="none" stroke="#FFFFFF" stroke-width="0.5" stroke-linejoin="bevel" stroke-miterlimit="10" d="M31.384,91.379
			c0,0,0.656,0.35,2.443-0.871"/>
		<path fill="none" stroke="#FFFFFF" stroke-width="0.5" stroke-linejoin="bevel" stroke-miterlimit="10" d="M82.617,60.542
			c0,0-1.589,4.241-2.854,6.077"/>
		
			<rect x="59.314" y="54.093" transform="matrix(0.6082 -0.7938 0.7938 0.6082 -19.907 68.8817)" fill="none" stroke="#FFFFFF" stroke-width="0.5" stroke-linejoin="bevel" stroke-miterlimit="10" width="1.029" height="1.03"/>
		
			<line fill="none" stroke="#FFFFFF" stroke-width="0.5" stroke-linejoin="bevel" stroke-miterlimit="10" x1="68.276" y1="52.333" x2="69.525" y2="52.558"/>
		<path fill="none" stroke="#FFFFFF" stroke-width="0.5" stroke-linejoin="bevel" stroke-miterlimit="10" d="M69.525,52.558
			c0,0,0.231,0.042,0.579,0.044"/>
		<path fill="none" stroke="#FFFFFF" stroke-width="0.5" stroke-linejoin="bevel" stroke-miterlimit="10" d="M72.232,51.975
			c-0.067,0.052-0.138,0.1-0.207,0.143"/>
		<path fill="none" stroke="#FFFFFF" stroke-width="0.5" stroke-linejoin="bevel" stroke-miterlimit="10" d="M73.39,51.528
			c-0.796-0.056-1.157,0.447-1.157,0.447"/>
		
			<line fill="none" stroke="#FFFFFF" stroke-width="0.5" stroke-linejoin="bevel" stroke-miterlimit="10" x1="71.655" y1="51.08" x2="73.39" y2="51.528"/>
		<path fill="none" stroke="#FFFFFF" stroke-width="0.5" stroke-linejoin="bevel" stroke-miterlimit="10" d="M73.119,53.077
			c-0.181,0.184-0.384,0.331-0.594,0.453"/>
		<path fill="none" stroke="#FFFFFF" stroke-width="0.5" stroke-linejoin="bevel" stroke-miterlimit="10" d="M73.904,52.663
			c-0.568,0.127-0.785,0.415-0.785,0.415"/>
		
			<line fill="none" stroke="#FFFFFF" stroke-width="0.5" stroke-linejoin="bevel" stroke-miterlimit="10" x1="69.442" y1="53.968" x2="68.538" y2="53.747"/>
		<path fill="none" stroke="#FFFFFF" stroke-width="0.5" stroke-linejoin="bevel" stroke-miterlimit="10" d="M70.323,54.037
			c-0.518-0.002-0.881-0.068-0.881-0.068"/>
		
			<line fill="none" stroke="#FFFFFF" stroke-width="0.5" stroke-linejoin="bevel" stroke-miterlimit="10" x1="65.865" y1="53.091" x2="64.665" y2="52.798"/>
		<path fill="none" stroke="#FFFFFF" stroke-width="0.5" stroke-linejoin="bevel" stroke-miterlimit="10" d="M76.415,53.052
			c-0.119-0.048-0.233-0.091-0.344-0.13"/>
		<path fill="none" stroke="#FFFFFF" stroke-width="0.5" stroke-linejoin="bevel" stroke-miterlimit="10" d="M78.917,53.958
			c-0.638-0.199-1.475-0.488-2.502-0.906"/>
		<path fill="none" stroke="#FFFFFF" stroke-width="0.5" stroke-linejoin="bevel" stroke-miterlimit="10" d="M83.531,54.794
			c-0.926-0.051-1.811-0.186-2.416-0.295"/>
		<path fill="none" stroke="#FFFFFF" stroke-width="0.5" stroke-linejoin="bevel" stroke-miterlimit="10" d="M86.17,54.594
			c-0.119,0.035-0.244,0.062-0.37,0.086"/>
		
			<line fill="none" stroke="#FFFFFF" stroke-width="0.5" stroke-linejoin="bevel" stroke-miterlimit="10" x1="87.505" y1="54.29" x2="86.17" y2="54.594"/>
	</g>
	<g>
		
			<rect x="59.314" y="54.093" transform="matrix(0.6082 -0.7938 0.7938 0.6082 -19.907 68.8817)" fill="none" stroke="#FFFFFF" stroke-width="0.5" stroke-linejoin="bevel" stroke-miterlimit="10" width="1.029" height="1.03"/>
	</g>
</g>
</svg>
