<?xml version="1.0" standalone="no"?>
<!DOCTYPE svg PUBLIC "-//W3C//DTD SVG 20010904//EN"
 "http://www.w3.org/TR/2001/REC-SVG-20010904/DTD/svg10.dtd">
<svg version="1.0" xmlns="http://www.w3.org/2000/svg"
 width="554.000000pt" height="1200.000000pt" viewBox="0 0 554.000000 1200.000000"
 preserveAspectRatio="xMidYMid meet">

<g transform="translate(0.000000,1200.000000) scale(0.100000,-0.100000)"
fill="#000000" stroke="none">
<path d="M1 9768 c0 -1228 3 -2226 6 -2218 3 8 15 27 25 43 14 20 18 36 13 58
-6 25 -4 31 14 36 12 3 21 9 21 14 0 5 6 6 14 3 13 -5 66 42 66 59 0 4 -11 25
-24 46 -23 35 -23 39 -8 54 53 50 81 85 87 110 6 24 12 27 46 27 34 0 39 -3
39 -24 0 -37 25 -52 53 -33 13 8 28 12 33 9 14 -10 44 -71 44 -90 1 -9 32 -44
70 -77 71 -61 85 -81 51 -72 -73 19 -49 -97 27 -125 29 -11 36 -20 33 -40 -3
-22 31 -3 59 33 25 31 38 39 58 37 35 -4 66 -49 58 -82 -7 -30 -26 -35 -26 -7
0 24 -25 45 -46 37 -12 -5 -15 -14 -11 -36 5 -22 2 -33 -12 -42 -17 -12 -18
-19 -9 -60 8 -34 8 -66 0 -115 -10 -58 -9 -71 5 -92 27 -42 131 -141 298 -286
246 -214 427 -377 455 -410 48 -57 65 -72 95 -88 46 -24 145 -139 145 -168 0
-25 -40 1 -137 89 -59 54 -131 110 -158 125 -46 25 -84 56 -267 219 -37 33
-91 78 -120 101 -29 23 -73 60 -96 82 -24 22 -51 44 -60 49 -30 16 -165 130
-218 184 -29 28 -55 52 -58 52 -3 0 -6 -9 -6 -21 0 -13 56 -77 160 -182 88
-88 158 -163 155 -165 -2 -2 -17 9 -32 25 -15 16 -40 36 -54 45 -33 21 -91 30
-100 17 -3 -6 -18 -12 -33 -12 -28 -2 -35 -14 -11 -23 25 -10 -5 -30 -38 -26
-20 3 -33 0 -38 -11 -7 -12 -19 -14 -46 -10 -24 4 -34 3 -29 -5 25 -40 -98 11
-138 58 -13 16 -34 54 -47 84 -26 64 -47 71 -95 34 -18 -15 -42 -23 -68 -23
-23 0 -47 -4 -53 -8 -19 -12 -33 1 -33 28 0 39 -11 55 -36 55 l-24 0 0 -731
c0 -632 2 -738 16 -784 8 -30 14 -60 13 -67 -4 -17 11 -61 23 -69 6 -4 23 0
38 8 16 7 41 15 56 16 24 2 29 -2 35 -33 4 -19 19 -44 33 -55 26 -21 35 -45
15 -45 -5 0 -15 -13 -20 -30 -6 -17 -18 -30 -27 -30 -15 0 -42 -40 -42 -62 0
-4 17 -8 39 -8 30 0 42 5 55 25 12 18 23 24 45 21 44 -5 49 -11 41 -59 -3 -24
-5 -56 -3 -70 3 -19 0 -25 -10 -21 -7 2 -21 -3 -30 -13 -15 -17 -15 -22 0 -63
8 -25 15 -65 14 -89 -3 -63 18 -143 38 -148 21 -5 20 -48 -2 -91 -8 -17 -12
-41 -10 -55 3 -13 -4 -42 -16 -65 l-21 -41 22 -43 c20 -37 23 -62 27 -186 l3
-143 33 -16 c34 -16 49 -38 59 -85 4 -19 18 -34 44 -47 38 -19 157 -48 252
-61 31 -4 65 -10 75 -13 32 -10 293 -46 375 -52 134 -10 203 -14 320 -20 63
-3 140 -10 170 -16 30 -5 109 -14 175 -19 154 -12 187 -18 196 -31 4 -7 17 -8
43 -1 28 8 43 7 64 -4 32 -16 98 -19 107 -3 5 7 12 6 23 -4 21 -18 60 -28 135
-34 37 -3 60 -10 64 -19 3 -8 14 -14 25 -14 10 0 16 5 13 10 -3 6 1 10 9 10 9
0 16 -7 16 -15 0 -8 5 -15 10 -15 6 0 10 7 10 15 0 18 40 20 125 4 33 -7 76
-13 96 -14 57 -4 100 -16 94 -25 -3 -5 -22 -14 -43 -21 -20 -6 -44 -17 -52
-24 -8 -7 -37 -16 -63 -20 -27 -3 -59 -9 -70 -12 -12 -2 -43 -5 -68 -4 -37 0
-52 -6 -79 -30 -19 -18 -39 -28 -48 -24 -8 3 -20 -3 -28 -14 -15 -21 -94 -63
-94 -50 0 5 -12 -4 -27 -20 -33 -33 -67 -38 -57 -8 5 17 3 17 -16 7 -12 -6
-24 -9 -27 -6 -3 3 2 8 11 12 22 8 20 24 -3 24 -10 0 -26 -11 -35 -25 -15 -22
-15 -25 0 -33 13 -7 6 -14 -37 -36 -29 -14 -61 -26 -70 -26 -10 0 -21 -5 -24
-10 -10 -17 -87 -50 -116 -50 -16 0 -29 -7 -33 -16 -5 -12 -14 -15 -35 -11
-22 5 -34 0 -51 -18 -12 -13 -29 -21 -36 -18 -8 3 -29 -10 -48 -31 -22 -23
-49 -39 -78 -46 -87 -21 -199 -57 -209 -67 -6 -6 -17 -9 -24 -7 -7 3 -16 1
-20 -5 -3 -6 0 -12 7 -12 7 -1 -3 -4 -22 -8 -23 -4 -38 -14 -45 -28 -5 -13
-16 -25 -23 -28 -7 -2 -10 0 -7 5 11 18 -27 24 -40 7 -7 -10 -24 -17 -38 -17
-14 0 -33 -3 -42 -6 -13 -6 -14 -9 -3 -16 9 -7 8 -8 -5 -4 -19 6 -62 -16 -51
-26 3 -3 -9 -10 -25 -16 -17 -6 -31 -16 -31 -21 0 -6 -8 -11 -18 -11 -27 0
-82 -29 -82 -44 0 -15 -55 -48 -64 -38 -4 4 -13 -1 -20 -10 -15 -21 -9 -81 8
-75 7 3 13 -4 13 -14 1 -15 -5 -19 -30 -19 -21 0 -36 -7 -45 -20 -13 -22 -56
-27 -68 -9 -4 7 1 16 10 21 21 12 20 27 -2 45 -16 14 -16 14 0 9 12 -4 18 0
18 10 0 11 6 15 20 11 13 -3 20 0 20 9 0 8 5 14 11 14 11 0 39 24 39 34 0 13
-19 5 -42 -19 -14 -13 -33 -26 -44 -28 -10 -1 -25 -6 -33 -11 -8 -5 -16 -3
-22 5 -7 11 -11 10 -23 -6 -9 -11 -13 -26 -11 -33 4 -10 -1 -11 -18 -6 -38 12
-52 10 -49 -8 2 -14 -4 -17 -25 -16 -39 2 -46 8 -32 24 9 11 8 14 -4 14 -12 0
-15 -9 -13 -36 2 -20 9 -40 16 -44 9 -5 8 -9 -4 -13 -8 -3 -17 -1 -19 6 -3 8
-10 7 -23 -5 -15 -13 -33 -16 -72 -13 -48 3 -54 1 -70 -22 -9 -15 -15 -37 -14
-49 4 -30 -27 -46 -78 -41 -29 3 -40 0 -40 -10 0 -13 -16 -17 -58 -13 -12 1
-22 -3 -22 -9 0 -6 5 -11 11 -11 5 0 7 -5 4 -10 -3 -5 -17 -10 -30 -10 -13 0
-36 -5 -50 -12 -19 -9 -24 -16 -19 -32 6 -19 6 -20 -20 -3 -19 13 -26 14 -26
5 0 -7 -9 -19 -20 -26 -20 -12 -20 -23 -20 -1182 l0 -1170 2016 0 c2053 0
2083 1 2125 36 8 8 27 14 40 14 14 0 34 7 45 15 10 8 28 15 40 15 12 0 41 11
65 23 24 13 54 23 66 22 12 -1 20 2 17 7 -3 4 16 9 43 10 67 2 76 2 95 -7 13
-5 21 0 29 19 16 35 56 47 92 27 26 -15 29 -15 42 3 9 11 20 16 30 12 29 -11
61 4 72 34 9 24 6 37 -21 91 -28 55 -37 64 -86 86 -30 14 -62 31 -70 38 -8 7
-31 15 -50 19 -56 10 -66 20 -52 51 7 14 17 23 22 20 6 -4 18 -1 26 6 11 9 12
14 3 20 -19 11 -2 39 23 38 13 0 52 4 88 9 l65 9 39 -43 c52 -58 85 -58 91 0
1 11 3 24 4 29 2 11 146 8 158 -4 18 -18 58 -7 58 16 1 11 -2 22 -5 25 -3 3
-10 14 -16 25 -6 11 -22 23 -35 26 -23 7 -23 7 4 8 15 1 27 7 27 14 0 26 35
36 96 27 86 -13 194 -23 235 -21 25 1 39 -4 43 -14 3 -9 18 -15 41 -15 l35 0
0 730 0 730 -37 1 c-21 1 -42 1 -47 0 -5 -1 -48 -3 -95 -5 -67 -2 -94 -7 -124
-24 -21 -12 -51 -22 -68 -22 -16 0 -40 -9 -51 -20 -23 -21 -45 -21 -40 -1 1 6
-5 11 -14 11 -8 0 -29 13 -47 30 -37 35 -56 37 -85 11 -26 -22 -28 -31 -7 -31
8 0 19 -9 24 -19 9 -15 7 -20 -10 -24 -12 -3 -18 -10 -14 -17 5 -8 11 -8 21 1
8 6 18 9 22 5 4 -4 -1 -13 -11 -21 -9 -7 -16 -22 -15 -33 2 -11 -1 -20 -7 -19
-5 1 -9 8 -7 14 4 16 -7 16 -64 2 -25 -7 -50 -20 -56 -29 -9 -13 -21 -16 -52
-13 -31 4 -46 0 -62 -15 -14 -13 -29 -18 -51 -15 -28 4 -31 2 -27 -15 6 -21
-17 -32 -73 -32 -17 0 -34 -4 -37 -9 -3 -5 -23 -11 -43 -15 -185 -27 -331 -38
-339 -24 -3 5 -14 6 -24 3 -13 -4 -22 1 -30 15 -6 11 -17 20 -26 20 -8 0 -17
6 -20 14 -3 8 -18 18 -34 21 -22 5 -29 13 -34 40 -7 35 6 75 24 75 18 0 31 39
21 59 -9 16 -8 18 12 14 21 -4 22 -4 3 11 -27 22 -46 20 -46 -5 0 -11 -4 -17
-11 -14 -7 5 -5 15 6 31 19 30 16 30 -51 -2 -40 -19 -58 -23 -68 -15 -7 6 -16
8 -20 3 -4 -4 -12 1 -18 11 -9 18 -11 18 -29 -2 -21 -22 -44 -27 -53 -12 -12
19 -60 18 -99 -2 -22 -11 -51 -21 -66 -22 -14 -1 -39 -5 -55 -10 -30 -8 -30
-5 -9 51 5 13 -54 40 -65 30 -4 -4 1 -14 12 -21 17 -13 17 -15 -5 -38 -21 -21
-128 -53 -164 -48 -45 5 -84 17 -107 33 -15 10 -29 14 -32 9 -9 -13 -88 -3
-105 13 -10 11 -18 12 -31 4 -20 -13 -74 -2 -64 13 3 5 -8 23 -24 39 l-31 29
20 25 c10 13 19 28 19 33 0 4 10 13 23 18 12 6 23 20 25 33 2 13 15 28 30 35
15 7 56 42 92 78 l65 66 73 7 c53 5 72 11 72 22 0 8 8 14 18 14 9 0 29 6 43
14 15 7 39 11 53 9 14 -3 26 -1 26 5 0 11 38 4 58 -11 6 -5 12 -6 12 -1 0 5 4
4 8 -3 5 -9 18 -9 50 0 35 9 45 9 51 -2 5 -7 14 -11 20 -7 6 4 32 -3 58 -15
40 -18 48 -19 57 -7 12 15 96 13 96 -2 0 -5 10 -10 23 -12 16 -2 21 -9 19 -25
-2 -14 4 -26 18 -33 23 -12 60 -5 60 12 0 5 6 8 13 6 6 -3 12 -10 12 -16 0 -7
3 -12 8 -12 4 0 12 0 17 0 6 0 10 9 10 19 0 10 7 22 16 25 26 10 7 23 -28 19
l-33 -4 32 15 c22 10 41 12 60 6 16 -5 20 -9 11 -9 -10 -1 -18 -6 -18 -12 0
-7 7 -8 18 -4 29 12 73 13 85 0 30 -29 107 -44 107 -21 0 9 7 17 15 17 8 1 21
2 28 3 6 1 16 0 21 -2 4 -3 25 -5 45 -6 20 -1 50 -12 66 -24 35 -25 95 -40 95
-23 0 6 7 11 16 11 9 0 30 6 47 14 18 8 61 16 96 18 43 3 66 9 72 20 5 10 30
18 69 22 33 4 60 11 60 16 0 6 -8 10 -17 11 -14 0 -13 3 5 11 12 6 22 15 22
20 0 4 17 8 38 8 48 0 82 30 62 55 -13 16 -3 20 24 9 9 -3 13 -10 10 -15 -3
-5 1 -9 8 -9 7 0 21 14 30 30 14 25 23 30 54 30 28 0 44 7 68 33 17 17 38 32
46 32 8 0 14 7 13 15 -2 11 9 16 45 17 28 2 51 8 58 18 6 8 19 15 29 15 10 0
28 11 41 25 13 14 27 25 31 25 4 0 20 12 36 25 l27 24 0 160 c0 133 -3 164
-17 190 -10 17 -26 31 -35 31 -21 0 -24 -16 -5 -24 6 -3 1 -3 -13 0 -14 4 -28
12 -32 18 -6 8 -11 7 -17 -3 -9 -15 -38 -4 -60 23 -7 8 -19 12 -27 9 -9 -3
-14 0 -12 8 3 15 0 15 -46 3 -19 -4 -27 -3 -23 3 4 7 -11 13 -37 17 -36 6 -43
10 -39 26 3 12 -3 22 -16 29 -28 16 -26 31 4 31 15 0 24 -5 23 -12 -2 -9 12
-13 45 -13 26 0 47 4 47 9 0 4 10 6 22 3 13 -4 29 0 40 10 16 14 19 14 34 -2
17 -17 17 -18 -2 -32 -13 -10 -14 -14 -4 -12 8 2 26 -3 39 -10 21 -12 23 -11
18 3 -4 10 -1 16 7 16 8 0 16 -5 18 -11 3 -8 15 -8 46 0 l42 12 0 340 c0 308
-2 341 -16 335 -9 -3 -27 -9 -40 -12 -13 -3 -22 -10 -19 -14 6 -10 -14 -25
-22 -16 -3 3 0 12 6 20 7 8 11 25 9 38 -3 21 2 23 40 26 l42 3 0 3960 0 3959
-2770 0 -2770 0 1 -2232z m2836 -1484 c-3 -3 -12 -4 -19 -1 -8 3 -5 6 6 6 11
1 17 -2 13 -5z m-1679 -141 c5 -10 17 -43 28 -73 10 -30 31 -70 46 -88 19 -22
28 -44 28 -67 0 -19 16 -67 35 -106 34 -71 40 -94 16 -65 -7 8 -19 12 -27 9
-8 -3 -14 0 -14 6 0 6 4 11 10 11 5 0 7 6 4 14 -3 8 -13 12 -24 9 -10 -3 -21
0 -24 6 -4 6 -2 11 3 11 6 0 11 7 11 15 0 8 -7 15 -15 15 -8 0 -15 -4 -15 -10
0 -5 -7 -10 -16 -10 -15 0 -15 2 -1 23 14 22 13 24 -13 35 -16 7 -40 10 -54 6
-22 -5 -26 -3 -26 15 0 12 5 21 10 21 14 0 13 47 -2 56 -6 4 -17 -1 -25 -12
-12 -16 -15 -17 -23 -4 -5 8 -10 21 -10 28 0 7 -5 10 -11 6 -17 -10 -2 -114
17 -129 10 -7 14 -21 12 -36 -4 -21 -7 -18 -26 24 -12 27 -22 57 -22 68 0 10
-5 19 -10 19 -6 0 -16 11 -22 26 -10 22 -9 28 15 50 15 14 27 29 27 33 0 5 7
8 16 7 11 0 20 10 26 29 19 60 28 75 47 75 11 0 24 -8 29 -17z m-171 -221 c7
-4 16 -27 21 -50 l10 -43 -24 15 c-13 9 -37 16 -54 16 -27 0 -30 2 -20 19 12
23 39 51 48 51 4 0 12 -4 19 -8z m-74 -92 c9 -11 23 -20 31 -20 8 0 17 -7 20
-16 9 -22 7 -89 -1 -80 -5 4 -8 11 -8 14 -2 22 -18 51 -30 56 -32 12 -59 -46
-33 -72 6 -6 9 -14 6 -17 -7 -7 -71 52 -66 62 10 24 54 93 58 93 3 0 13 -9 23
-20z m193 -55 c23 -35 13 -54 -14 -27 -23 23 -30 52 -12 52 5 0 17 -11 26 -25z
m-266 -87 c28 -30 33 -55 28 -138 -4 -74 -9 -86 -33 -77 -11 5 -15 22 -15 67
0 51 -4 65 -25 85 -13 14 -29 25 -35 25 -18 0 -11 28 12 44 30 21 43 20 68 -6z
m167 -50 c20 -9 31 -25 37 -51 12 -48 1 -58 -27 -25 -27 32 -57 48 -91 48 -31
0 -42 16 -25 36 15 18 60 14 106 -8z m163 12 c0 -5 -2 -10 -4 -10 -3 0 -8 5
-11 10 -3 6 -1 10 4 10 6 0 11 -4 11 -10z m1334 -18 c3 -5 -1 -9 -9 -9 -8 0
-15 4 -15 9 0 4 4 8 9 8 6 0 12 -4 15 -8z m-61 -9 c-7 -2 -19 -2 -25 0 -7 3
-2 5 12 5 14 0 19 -2 13 -5z m130 0 c-7 -2 -19 -2 -25 0 -7 3 -2 5 12 5 14 0
19 -2 13 -5z m-1294 -160 c79 -134 97 -178 66 -167 -8 4 -15 12 -15 18 0 18
-57 122 -99 181 -38 53 -61 91 -61 100 0 3 6 5 14 5 8 0 50 -62 95 -137z
m1151 117 c0 -5 -2 -10 -4 -10 -3 0 -8 5 -11 10 -3 6 -1 10 4 10 6 0 11 -4 11
-10z m-1463 -52 c26 -30 43 -81 33 -99 -7 -10 -10 -9 -15 6 -14 43 -28 62 -56
79 -16 10 -27 22 -24 27 11 16 41 10 62 -13z m1578 8 c11 -2 -88 -4 -220 -5
-132 -1 -265 -3 -295 -6 -30 -2 -48 -2 -40 1 49 16 474 24 555 10z m105 2 c0
-4 -19 -8 -42 -7 -36 1 -39 2 -18 9 31 9 60 8 60 -2z m53 5 c-7 -2 -19 -2 -25
0 -7 3 -2 5 12 5 14 0 19 -2 13 -5z m-762 -38 c-18 -8 -36 -15 -40 -15 -13 1
45 29 59 29 8 0 0 -6 -19 -14z m-1128 -70 c56 -39 98 -145 62 -159 -8 -3 -14
-2 -13 2 4 12 -50 90 -74 106 -12 9 -32 16 -45 16 -27 0 -36 14 -28 40 9 28
52 26 98 -5z m97 0 c0 -8 -4 -15 -9 -15 -13 0 -22 16 -14 24 11 11 23 6 23 -9z
m120 -79 c14 -7 24 -18 23 -24 -2 -7 2 -12 8 -12 6 0 9 -9 6 -19 -4 -15 -1
-18 11 -13 14 5 15 4 2 -10 -16 -17 -41 -6 -36 15 1 7 1 9 -1 5 -3 -4 -17 -2
-31 6 -15 7 -39 16 -54 20 -19 4 -28 13 -28 25 0 32 43 34 100 7z m-270 -29
c15 -12 40 -51 40 -62 0 -4 -18 9 -39 27 -22 18 -37 36 -35 40 7 11 16 9 34
-5z m1038 -73 c27 -13 57 -20 96 -23 5 -1 6 -4 3 -7 -15 -16 -187 1 -187 17 0
14 37 11 77 -6 20 -8 38 -13 41 -11 2 3 -12 12 -32 20 -20 8 -36 17 -36 20 0
9 4 8 38 -10z m-394 -10 c9 -24 7 -28 -9 -14 -17 14 -20 30 -6 30 5 0 12 -7
15 -16z m461 -44 c3 -5 2 -10 -4 -10 -5 0 -13 5 -16 10 -3 6 -2 10 4 10 5 0
13 -4 16 -10z m112 4 c-3 -3 -12 -4 -19 -1 -8 3 -5 6 6 6 11 1 17 -2 13 -5z
m346 -23 c4 -4 -22 -8 -57 -8 -51 0 -63 2 -59 13 4 11 17 13 57 8 28 -4 54
-10 59 -13z m97 -11 c12 -7 10 -9 -8 -7 -12 0 -22 5 -22 9 0 11 12 10 30 -2z
m-124 -27 c-6 -6 -36 9 -36 18 0 5 9 4 20 -3 10 -7 18 -14 16 -15z m349 -13
c20 -13 24 -20 13 -20 -9 0 -18 5 -20 11 -2 6 -28 14 -58 19 l-55 8 45 1 c30
0 55 -6 75 -19z m110 0 c18 -8 17 -9 -7 -9 -16 -1 -28 4 -28 9 0 12 8 12 35 0z
m-1100 -18 c-3 -3 -11 0 -18 7 -9 10 -8 11 6 5 10 -3 15 -9 12 -12z m332 -18
c6 -6 41 -14 77 -18 35 -3 77 -13 93 -21 15 -8 24 -15 18 -15 -5 0 3 -11 18
-25 15 -14 27 -28 27 -30 0 -12 -18 -2 -49 26 -28 25 -41 30 -72 27 -20 -2
-35 0 -33 4 3 5 -12 8 -32 8 -30 0 -35 -3 -26 -12 7 -7 12 -16 12 -21 0 -6
-13 6 -30 24 -16 19 -30 42 -30 52 0 9 -4 17 -10 17 -5 0 -10 5 -10 11 0 11
16 2 47 -27z m-127 -2 l25 -12 -30 3 c-21 1 -31 8 -33 22 -2 11 0 16 5 10 4
-6 19 -16 33 -23z m728 11 c-10 -2 -26 -2 -35 0 -10 3 -2 5 17 5 19 0 27 -2
18 -5z m-338 -10 c0 -5 18 -21 40 -37 22 -17 40 -33 40 -36 0 -3 -16 -4 -35
-2 -20 2 -32 8 -29 14 4 6 -2 8 -15 3 -13 -4 -21 -2 -21 5 0 6 4 9 9 5 17 -10
23 15 7 31 -9 8 -16 17 -16 20 0 7 20 4 20 -3z m97 1 c-3 -3 -12 -4 -19 -1 -8
3 -5 6 6 6 11 1 17 -2 13 -5z m433 -14 c8 -5 11 -10 5 -10 -5 0 -17 5 -25 10
-8 5 -10 10 -5 10 6 0 17 -5 25 -10z m-366 -80 c-6 -5 -24 21 -24 34 0 6 6 1
14 -10 8 -10 12 -21 10 -24z m170 19 c-3 -5 -10 -7 -15 -3 -5 3 -7 10 -3 15 3
5 10 7 15 3 5 -3 7 -10 3 -15z m-421 -19 c22 -21 27 -30 16 -30 -9 0 -24 10
-35 21 -10 12 -28 25 -39 30 -19 7 -19 8 3 8 13 1 37 -12 55 -29z m774 5 c9
-25 -4 -29 -17 -6 -7 15 -7 21 0 21 6 0 13 -7 17 -15z m-1260 -10 c0 -8 -4
-12 -9 -9 -5 3 -6 10 -3 15 9 13 12 11 12 -6z m952 6 c11 -7 9 -10 -8 -16 -24
-7 -44 2 -36 16 8 11 26 11 44 0z m-899 -11 c0 -5 -4 -10 -10 -10 -5 0 -10 5
-10 10 0 6 5 10 10 10 6 0 10 -4 10 -10z m34 -14 c-3 -9 -13 -16 -22 -16 -13
0 -12 3 3 20 20 23 29 21 19 -4z m556 14 c0 -5 -2 -10 -4 -10 -3 0 -8 5 -11
10 -3 6 -1 10 4 10 6 0 11 -4 11 -10z m54 -5 c3 -8 14 -15 25 -15 11 0 22 -4
25 -9 4 -5 -11 -7 -34 -4 -36 5 -40 4 -40 -16 0 -26 -15 -20 -23 8 -3 13 -1
18 8 15 7 -3 16 -1 20 5 3 6 -1 11 -9 11 -9 0 -16 5 -16 10 0 16 37 12 44 -5z
m301 5 c-3 -5 -12 -10 -18 -10 -7 0 -6 4 3 10 19 12 23 12 15 0z m-1101 -16
c3 -8 2 -12 -4 -9 -6 3 -10 10 -10 16 0 14 7 11 14 -7z m863 10 c-3 -3 -12 -4
-19 -1 -8 3 -5 6 6 6 11 1 17 -2 13 -5z m-379 -11 c-18 -5 -33 -33 -18 -33 6
0 10 4 10 9 0 21 41 18 67 -5 15 -13 31 -24 36 -24 4 0 7 -7 7 -15 0 -8 -2
-15 -4 -15 -2 0 -13 -3 -23 -7 -16 -6 -16 -5 -4 10 13 16 8 22 -13 18 -5 -1
-16 1 -25 5 -9 4 -28 6 -43 5 -24 -2 -28 1 -28 22 0 25 12 36 40 35 11 0 11
-1 -2 -5z m792 -3 c0 -5 -2 -10 -4 -10 -3 0 -8 5 -11 10 -3 6 -1 10 4 10 6 0
11 -4 11 -10z m-960 -42 c0 -6 -7 -5 -15 2 -8 7 -15 17 -15 22 0 6 7 5 15 -2
8 -7 15 -17 15 -22z m-49 9 c-1 -12 -15 -9 -19 4 -3 6 1 10 8 8 6 -3 11 -8 11
-12z m1079 9 c0 -3 -4 -8 -10 -11 -5 -3 -10 -1 -10 4 0 6 5 11 10 11 6 0 10
-2 10 -4z m-676 -22 c10 -25 7 -34 -9 -34 -18 0 -20 16 -2 23 7 3 5 6 -5 6
-21 1 -25 21 -4 21 8 0 17 -7 20 -16z m293 10 c-3 -3 -12 -4 -19 -1 -8 3 -5 6
6 6 11 1 17 -2 13 -5z m-708 -45 c-8 -4 -8 -9 -1 -13 6 -3 13 -2 17 4 3 5 11
10 18 10 6 0 1 -7 -11 -16 -12 -8 -22 -21 -21 -27 4 -32 -1 -40 -16 -27 -14
12 -14 15 0 30 14 16 14 18 -1 24 -9 4 -19 4 -22 1 -3 -3 0 -5 7 -5 7 0 10 -4
7 -9 -10 -16 -42 -1 -42 20 0 16 5 19 26 14 23 -5 23 -4 8 8 -29 23 -21 30 12
11 18 -11 25 -21 19 -25z m99 6 c24 -27 13 -35 -12 -9 -14 14 -22 34 -13 34 2
0 13 -11 25 -25z m457 15 c3 -5 -1 -10 -10 -10 -9 0 -13 5 -10 10 3 6 8 10 10
10 2 0 7 -4 10 -10z m545 0 c0 -3 -6 -14 -12 -23 -12 -16 -15 -15 -41 7 l-29
25 41 -2 c23 -1 41 -4 41 -7z m-1333 -26 l28 -26 -33 5 c-41 7 -46 11 -39 32
8 20 11 19 44 -11z m293 11 c7 -8 9 -15 6 -15 -4 0 -14 7 -22 15 -9 8 -11 15
-6 15 5 0 15 -7 22 -15z m524 -1 c3 -8 2 -12 -4 -9 -6 3 -10 10 -10 16 0 14 7
11 14 -7z m-21 -18 c17 -13 16 -14 -2 -19 -22 -5 -31 0 -31 20 0 16 10 16 33
-1z m-108 -30 c13 -6 16 -10 7 -13 -7 -3 -20 1 -28 8 -9 7 -30 12 -47 12 l-32
-2 30 14 c24 11 32 11 40 1 6 -7 19 -16 30 -20z m-540 -14 c-6 -6 -35 18 -35
29 0 5 9 1 20 -8 11 -9 17 -19 15 -21z m892 32 c-3 -3 -12 -4 -19 -1 -8 3 -5
6 6 6 11 1 17 -2 13 -5z m-707 -14 c8 -5 11 -12 8 -16 -4 -3 -14 1 -23 10 -18
17 -9 21 15 6z m-250 -15 c7 -8 8 -15 2 -15 -5 0 -15 7 -22 15 -7 8 -8 15 -2
15 5 0 15 -7 22 -15z m940 5 c0 -5 -4 -10 -10 -10 -5 0 -10 5 -10 10 0 6 5 10
10 10 6 0 10 -4 10 -10z m220 -20 c24 -33 10 -41 -17 -10 -10 11 -23 20 -30
20 -7 0 -13 5 -13 10 0 22 40 8 60 -20z m-964 3 c9 -13 9 -22 2 -30 -13 -16 4
-17 20 -1 6 6 20 13 29 14 16 2 16 1 -1 -12 -11 -8 -24 -14 -29 -14 -4 0 -5
-5 -1 -11 5 -8 9 -8 14 1 5 9 9 9 14 1 4 -6 1 -11 -6 -12 -7 0 -3 -4 10 -9 12
-5 22 -14 22 -20 0 -6 -12 -3 -27 7 -43 26 -63 45 -58 54 3 4 -2 12 -11 17 -9
5 -14 14 -10 21 10 15 17 14 32 -6z m-255 -23 c9 -6 28 -27 40 -47 27 -44 47
-62 71 -63 9 0 20 -4 23 -10 4 -6 -12 -8 -39 -5 -49 5 -101 -9 -91 -24 13 -22
-37 -5 -62 21 -21 22 -26 36 -25 70 3 66 9 77 39 72 14 -3 34 -9 44 -14z m999
10 c0 -5 -5 -10 -11 -10 -5 0 -7 5 -4 10 3 6 8 10 11 10 2 0 4 -4 4 -10z
m-812 -26 l27 -26 -32 18 c-18 10 -33 22 -33 26 0 14 10 9 38 -18z m182 17 c0
-17 -18 -21 -24 -6 -3 9 0 15 9 15 8 0 15 -4 15 -9z m31 -8 c13 -16 12 -17 -3
-4 -10 7 -18 15 -18 17 0 8 8 3 21 -13z m-301 -9 c0 -8 -4 -12 -10 -9 -5 3
-10 10 -10 16 0 5 5 9 10 9 6 0 10 -7 10 -16z m314 -43 c-2 -3 -12 3 -22 13
-16 17 -16 18 5 5 12 -7 20 -15 17 -18z m-195 6 c16 1 20 -2 11 -7 -9 -6 -7
-11 11 -21 32 -17 44 -30 51 -56 8 -29 -8 -30 -22 -3 -6 11 -16 18 -21 14 -9
-5 -27 11 -73 66 -18 23 -18 23 0 15 11 -5 30 -8 43 -8z m141 3 c0 -5 -4 -10
-9 -10 -6 0 -13 5 -16 10 -3 6 1 10 9 10 9 0 16 -4 16 -10z m-195 -29 c-6 -5
-25 10 -25 20 0 5 6 4 14 -3 8 -7 12 -15 11 -17z m231 4 c9 -8 11 -15 5 -15
-6 0 -11 -7 -11 -15 0 -17 -2 -18 -24 -9 -9 3 -13 11 -10 16 4 6 10 5 16 -3 5
-9 6 -4 2 14 -7 30 0 34 22 12z m-36 -5 c0 -5 -4 -10 -10 -10 -5 0 -10 5 -10
10 0 6 5 10 10 10 6 0 10 -4 10 -10z m130 -10 c0 -5 -2 -10 -4 -10 -3 0 -8 5
-11 10 -3 6 -1 10 4 10 6 0 11 -4 11 -10z m-1060 -51 c0 -5 -11 1 -25 13 -14
12 -25 23 -25 25 0 2 11 -4 25 -13 14 -9 25 -20 25 -25z m765 11 c9 -17 21
-28 27 -24 6 4 9 1 7 -5 -7 -20 -23 -16 -34 8 -5 11 -13 21 -17 21 -5 0 -8 7
-8 15 0 23 8 18 25 -15z m244 7 c8 -11 5 -14 -19 -14 -24 0 -27 3 -19 14 6 7
15 13 19 13 4 0 13 -6 19 -13z m461 5 c0 -5 -9 -17 -20 -27 -11 -10 -20 -13
-20 -7 0 6 -3 17 -6 26 -5 12 0 16 20 16 14 0 26 -4 26 -8z m-390 -22 c0 -5
-4 -10 -9 -10 -6 0 -13 5 -16 10 -3 6 1 10 9 10 9 0 16 -4 16 -10z m-145 -28
c-3 -3 -11 0 -18 7 -9 10 -8 11 6 5 10 -3 15 -9 12 -12z m115 8 c0 -5 -5 -10
-11 -10 -5 0 -7 5 -4 10 3 6 8 10 11 10 2 0 4 -4 4 -10z m-127 -29 c15 -8 27
-18 27 -23 0 -16 -21 -8 -48 18 -28 27 -26 28 21 5z m247 -3 c0 -6 -6 -5 -15
2 -8 7 -15 14 -15 16 0 2 7 1 15 -2 8 -4 15 -11 15 -16z m-185 -8 c-3 -5 1
-10 9 -10 9 0 16 -4 16 -10 0 -6 -10 -5 -25 2 -19 8 -22 14 -13 20 17 10 20
10 13 -2z m-145 -10 c0 -5 -4 -10 -9 -10 -6 0 -13 5 -16 10 -3 6 1 10 9 10 9
0 16 -4 16 -10z m360 -5 c7 -9 8 -15 2 -15 -5 0 -12 7 -16 15 -3 8 -4 15 -2
15 2 0 9 -7 16 -15z m-31 -9 c10 -12 8 -13 -8 -9 -12 3 -18 9 -15 14 7 12 10
11 23 -5z m-495 -11 c3 -9 0 -15 -9 -15 -9 0 -12 6 -9 15 4 8 7 15 9 15 2 0 5
-7 9 -15z m199 -30 c17 -21 37 -35 50 -35 17 0 19 -2 7 -10 -12 -7 -11 -12 8
-28 12 -11 22 -24 22 -31 0 -6 6 -11 13 -11 6 -1 21 -15 32 -33 11 -18 30 -33
42 -35 12 -2 27 -10 34 -18 10 -12 9 -13 -7 -8 -14 5 -12 2 6 -13 14 -12 22
-25 18 -29 -4 -4 -14 -1 -23 6 -12 10 -15 10 -15 -4 0 -9 -7 -16 -15 -16 -11
0 -14 -7 -11 -27 l5 -28 -20 25 c-42 53 -47 58 -58 61 -13 5 -25 61 -22 99 1
13 2 13 11 0 6 -10 10 -11 10 -3 0 15 -52 84 -98 131 -33 33 -38 42 -24 42 4
0 20 -16 35 -35z m179 -9 c-3 -5 -9 -1 -14 7 -5 9 -15 14 -22 11 -8 -3 -17 -1
-21 5 -3 7 0 8 9 5 9 -3 16 -1 16 5 0 6 8 3 18 -6 11 -10 17 -22 14 -27z
m-908 5 c-2 -3 -12 3 -22 13 -16 17 -16 18 5 5 12 -7 20 -15 17 -18z m486 4
c0 -14 -4 -25 -10 -25 -11 0 -14 33 -3 43 11 11 13 8 13 -18z m610 15 c0 -5
-2 -10 -4 -10 -3 0 -8 5 -11 10 -3 6 -1 10 4 10 6 0 11 -4 11 -10z m200 0 c0
-5 -2 -10 -4 -10 -3 0 -8 5 -11 10 -3 6 -1 10 4 10 6 0 11 -4 11 -10z m-64
-15 c-11 -8 -24 -15 -30 -15 -5 0 -1 7 10 15 10 8 24 14 29 14 6 0 1 -6 -9
-14z m-181 -13 c33 -2 67 -8 75 -13 9 -5 -14 -6 -55 -3 -38 3 -81 12 -95 21
-15 8 -17 11 -5 7 11 -4 47 -9 80 -12z m-225 -12 c13 -8 13 -10 -2 -10 -9 0
-20 5 -23 10 -8 13 5 13 25 0z m357 4 c-3 -3 -12 -4 -19 -1 -8 3 -5 6 6 6 11
1 17 -2 13 -5z m-212 -22 c-3 -3 -11 0 -18 7 -9 10 -8 11 6 5 10 -3 15 -9 12
-12z m-110 -2 c-3 -5 -11 -10 -16 -10 -6 0 -7 5 -4 10 3 6 11 10 16 10 6 0 7
-4 4 -10z m165 -36 c0 -2 -9 0 -20 6 -11 6 -20 13 -20 16 0 2 9 0 20 -6 11 -6
20 -13 20 -16z m-114 -23 c-12 -18 -21 -12 -21 14 0 20 2 22 14 11 7 -8 10
-19 7 -25z m44 9 c0 -5 -4 -10 -10 -10 -5 0 -10 -5 -10 -10 0 -6 12 -8 28 -4
l27 6 -25 -15 c-17 -9 -29 -10 -37 -4 -8 6 -13 6 -13 0 0 -5 6 -15 13 -23 6
-8 2 -6 -9 3 l-22 18 22 24 c23 25 36 31 36 15z m-250 -40 c0 -21 -25 -4 -28
20 -4 21 -2 22 12 7 9 -8 16 -21 16 -27z m437 24 c-3 -3 -12 -4 -19 -1 -8 3
-5 6 6 6 11 1 17 -2 13 -5z m-257 -34 c6 -11 8 -20 6 -20 -3 0 -10 9 -16 20
-6 11 -8 20 -6 20 3 0 10 -9 16 -20z m455 0 c3 -6 -1 -7 -9 -4 -18 7 -21 14
-7 14 6 0 13 -4 16 -10z m-660 -20 c-3 -5 -12 -7 -20 -3 -21 7 -19 13 6 13 11
0 18 -4 14 -10z m490 0 c3 -6 -1 -7 -9 -4 -18 7 -21 14 -7 14 6 0 13 -4 16
-10z m72 4 c-3 -3 -12 -4 -19 -1 -8 3 -5 6 6 6 11 1 17 -2 13 -5z m-466 -31
c13 -15 12 -15 -8 -4 -24 12 -29 21 -14 21 5 0 15 -7 22 -17z m384 -3 c3 -5 1
-10 -4 -10 -6 0 -11 5 -11 10 0 6 2 10 4 10 3 0 8 -4 11 -10z m-162 -18 c-2
-6 3 -12 10 -12 8 0 14 -7 14 -15 0 -13 -3 -13 -18 1 -10 9 -16 21 -12 27 4 6
0 8 -10 4 -9 -3 -19 -1 -23 4 -4 7 3 9 17 7 13 -2 23 -9 22 -16z m61 -1 c4 -5
-3 -7 -14 -4 -23 6 -26 13 -6 13 8 0 17 -4 20 -9z m330 -6 c-10 -8 -23 -15
-28 -15 -6 0 -1 7 10 15 10 8 23 15 28 15 6 0 1 -7 -10 -15z m146 5 c0 -5 -2
-10 -4 -10 -3 0 -8 5 -11 10 -3 6 -1 10 4 10 6 0 11 -4 11 -10z m-263 -26 c-3
-3 -12 -4 -19 -1 -8 3 -5 6 6 6 11 1 17 -2 13 -5z m-170 -18 c4 -4 -4 -5 -20
-1 -23 6 -27 4 -27 -16 0 -26 -9 -21 -15 9 -3 17 1 20 25 18 16 -1 33 -6 37
-10z m-122 -16 c-3 -6 0 -13 9 -16 8 -3 17 -12 20 -20 4 -11 -3 -9 -24 6 -33
23 -39 40 -14 40 8 0 12 -5 9 -10z m35 0 c0 -5 -5 -10 -11 -10 -5 0 -7 5 -4
10 3 6 8 10 11 10 2 0 4 -4 4 -10z m-1075 -21 c-7 -20 -5 -21 23 -16 17 4 34
2 37 -3 3 -6 1 -10 -4 -10 -6 0 -11 -5 -11 -11 0 -6 7 -9 15 -5 8 3 20 -3 27
-13 16 -21 41 -31 92 -37 41 -4 59 -14 39 -21 -25 -9 -13 -22 15 -18 18 4 35
-1 52 -16 l25 -21 -25 5 c-14 2 -34 8 -45 12 -14 6 -13 2 7 -13 14 -12 33 -20
40 -17 9 4 19 -4 26 -21 8 -16 18 -24 27 -21 15 7 39 -16 28 -27 -10 -10 17
-26 46 -26 16 0 21 -4 18 -14 -6 -15 19 -31 42 -27 12 2 12 0 3 -11 -14 -17
-6 -25 76 -89 32 -24 51 -46 48 -54 -2 -7 2 -16 10 -19 9 -3 12 -1 9 4 -12 20
15 9 42 -16 47 -44 70 -56 95 -49 16 4 19 3 9 -3 -14 -10 -7 -32 10 -32 6 0 9
19 7 47 -2 31 1 47 10 49 7 1 8 0 2 -3 -5 -2 -10 -11 -10 -20 0 -10 6 -12 23
-7 21 6 21 6 6 -12 -21 -24 -37 -85 -18 -66 7 6 22 12 34 12 19 1 19 1 2 11
-17 10 -16 12 8 37 25 25 25 27 9 39 -16 12 -16 13 -1 13 9 0 17 -5 17 -12 0
-6 3 -8 7 -5 3 4 13 -2 20 -13 8 -11 19 -18 24 -15 5 4 9 0 9 -7 0 -8 -9 -14
-20 -14 -13 0 -20 7 -20 18 0 10 -5 18 -11 18 -6 0 -8 -9 -4 -21 5 -15 4 -19
-4 -15 -6 4 -11 3 -11 -1 0 -15 39 -33 56 -26 13 5 15 2 9 -18 -7 -22 -7 -22
10 -6 11 12 15 26 11 45 -3 15 -3 21 0 15 3 -7 13 -13 22 -13 10 0 13 -3 7 -8
-5 -4 -15 -22 -22 -39 -10 -30 -10 -32 7 -23 27 15 28 14 40 -32 19 -76 19
-75 41 -48 l21 25 -7 -30 c-4 -16 -3 -27 1 -22 4 4 18 -3 31 -15 13 -12 23
-16 23 -10 0 22 18 12 24 -13 9 -34 24 -32 19 3 -4 24 -3 25 7 9 7 -10 10 -28
7 -38 -3 -12 0 -22 9 -26 19 -7 18 -23 -2 -23 -8 0 -12 -4 -9 -10 10 -17 45
-12 39 5 -9 22 0 19 42 -17 70 -61 86 -81 72 -91 -10 -6 -10 -8 2 -5 8 3 17
15 21 29 5 17 8 19 9 7 1 -10 4 -22 5 -28 1 -5 3 -13 4 -17 0 -4 7 2 15 13 19
25 32 11 40 -41 4 -28 3 -34 -4 -20 -5 11 -9 30 -9 43 -1 12 -6 22 -12 22 -6
0 -8 -9 -4 -20 7 -23 -13 -28 -34 -7 -10 10 -11 9 -6 -5 4 -10 11 -18 16 -18
5 0 10 -8 10 -17 1 -17 2 -17 6 0 6 23 23 22 23 -3 0 -11 6 -20 14 -20 8 0 18
-10 22 -22 6 -21 7 -20 19 8 l12 29 13 -40 c9 -29 10 -40 1 -43 -6 -2 -8 -8
-5 -13 3 -6 11 -5 20 2 11 9 14 7 14 -11 0 -19 2 -20 15 -10 17 14 21 0 4 -17
-8 -8 -5 -15 12 -24 31 -16 46 -32 42 -44 -6 -22 17 -39 53 -40 36 0 38 -2 46
-39 10 -45 7 -51 -19 -38 -23 12 -29 57 -7 48 8 -3 14 -1 14 4 0 5 -15 9 -32
8 -55 0 -72 6 -108 36 -19 15 -29 25 -21 20 9 -4 12 -3 7 4 -4 6 -13 9 -20 6
-7 -3 -19 2 -26 11 -7 8 -17 15 -23 15 -17 0 -187 131 -182 140 3 5 0 12 -6
16 -8 4 -9 3 -5 -4 11 -19 -11 -14 -31 6 -16 16 -110 96 -153 129 -8 7 -39 31
-68 53 -28 23 -49 47 -45 52 3 6 2 8 -4 5 -9 -5 -117 70 -133 92 -3 4 -20 17
-38 30 -18 12 -29 27 -26 33 4 7 2 8 -4 4 -7 -4 -12 -3 -12 2 0 5 -13 15 -29
22 -16 6 -38 21 -47 31 -17 19 -17 20 2 13 15 -5 16 -4 4 4 -8 6 -18 8 -23 5
-4 -2 -20 7 -34 21 -14 14 -30 26 -35 26 -6 0 -7 7 -4 16 3 9 2 12 -5 9 -6 -4
-17 1 -25 11 -9 11 -12 13 -8 5 5 -9 3 -12 -4 -7 -7 4 -12 13 -12 21 0 7 -11
16 -25 19 -14 4 -25 13 -25 22 0 8 -17 23 -37 32 -21 10 -76 46 -123 81 -47
35 -90 66 -97 68 -6 3 -9 12 -6 21 5 11 2 14 -10 9 -9 -3 -17 -2 -17 3 0 6 5
10 10 10 6 0 10 4 10 9 0 5 -9 7 -20 4 -12 -3 -20 0 -20 7 0 7 -8 9 -21 5 -12
-4 -19 -3 -16 2 3 5 2 15 -4 23 -7 12 -9 12 -9 1 0 -11 -3 -11 -15 -1 -8 7
-15 18 -15 25 0 18 -46 46 -63 39 -8 -3 -18 -1 -22 5 -3 6 2 12 12 12 10 1 5
4 -12 8 -19 4 -31 13 -34 26 -2 11 -8 24 -15 28 -6 5 0 7 17 4 18 -3 27 0 27
9 0 8 5 14 11 14 6 0 8 -9 4 -21z m1369 9 c-7 -11 -45 -10 -64 2 -11 7 -3 9
27 8 23 -1 40 -5 37 -10z m976 -8 c0 -5 -5 -10 -11 -10 -5 0 -7 5 -4 10 3 6 8
10 11 10 2 0 4 -4 4 -10z m-1530 -20 c0 -5 -2 -10 -4 -10 -3 0 -8 5 -11 10 -3
6 -1 10 4 10 6 0 11 -4 11 -10z m200 0 c0 -5 -2 -10 -4 -10 -3 0 -8 5 -11 10
-3 6 -1 10 4 10 6 0 11 -4 11 -10z m117 -16 c-3 -3 -12 -4 -19 -1 -8 3 -5 6 6
6 11 1 17 -2 13 -5z m-987 -30 c0 -8 -4 -12 -10 -9 -5 3 -10 13 -10 21 0 8 5
12 10 9 6 -3 10 -13 10 -21z m356 5 c19 -22 19 -22 -3 -10 -24 12 -39 31 -25
31 5 0 17 -10 28 -21z m554 12 c0 -6 -9 -9 -19 -8 -11 0 -17 5 -15 9 7 11 34
10 34 -1z m253 -8 c-7 -2 -19 -2 -25 0 -7 3 -2 5 12 5 14 0 19 -2 13 -5z m957
-49 c0 -8 -4 -14 -10 -14 -5 0 -10 -7 -10 -15 0 -8 -7 -15 -15 -15 -8 0 -15 5
-15 11 0 5 4 8 9 5 5 -3 9 0 8 7 0 6 1 23 1 36 2 20 4 21 17 11 8 -7 15 -19
15 -26z m-1698 -5 c16 -12 27 -24 24 -26 -3 -3 -19 6 -36 21 -38 31 -30 35 12
5z m553 -16 c19 -20 35 -40 35 -44 0 -21 -26 -18 -63 8 -23 15 -50 31 -59 35
-10 4 -18 13 -18 19 0 8 5 7 16 -2 13 -11 17 -10 25 4 14 25 25 21 64 -20z
m-1064 10 c13 -17 13 -17 -6 -3 -11 8 -22 16 -24 17 -2 2 0 3 6 3 6 0 17 -8
24 -17z m-131 -33 c0 -5 -2 -10 -4 -10 -3 0 -8 5 -11 10 -3 6 -1 10 4 10 6 0
11 -4 11 -10z m410 -34 c0 -3 -4 -8 -10 -11 -5 -3 -10 -1 -10 4 0 6 5 11 10
11 6 0 10 -2 10 -4z m733 -59 c-8 -13 -43 24 -43 45 0 16 4 15 24 -9 13 -15
22 -32 19 -36z m1117 13 c0 -5 -9 -19 -19 -29 -11 -11 -16 -23 -13 -28 4 -4 0
-2 -8 5 -13 12 -12 16 8 32 20 17 21 19 5 23 -14 4 -13 5 5 6 12 0 22 -3 22
-9z m60 -34 c0 -3 -4 -8 -10 -11 -5 -3 -10 -1 -10 4 0 6 5 11 10 11 6 0 10 -2
10 -4z m-76 -111 c-15 -22 -31 -36 -21 -17 2 4 7 15 10 25 4 9 11 17 17 17 6
0 3 -11 -6 -25z m-95 -6 c-7 -4 -17 -5 -22 -2 -5 3 -3 9 4 14 7 4 17 5 22 2 5
-3 3 -9 -4 -14z m-1284 -59 c3 -6 -1 -7 -9 -4 -18 7 -21 14 -7 14 6 0 13 -4
16 -10z m165 -36 c0 -9 -37 15 -51 33 -10 12 -5 11 19 -6 17 -12 32 -24 32
-27z m1220 36 c0 -5 -2 -10 -4 -10 -3 0 -8 5 -11 10 -3 6 -1 10 4 10 6 0 11
-4 11 -10z m-1327 -37 c-7 -2 -19 -2 -25 0 -7 3 -2 5 12 5 14 0 19 -2 13 -5z
m1107 -14 c-7 -11 -14 -18 -17 -15 -3 3 0 12 7 21 18 21 23 19 10 -6z m95 1
c-3 -5 -11 -10 -16 -10 -6 0 -7 5 -4 10 3 6 11 10 16 10 6 0 7 -4 4 -10z m75
-38 c3 -3 -6 -1 -19 3 -20 6 -23 5 -17 -10 5 -15 4 -16 -9 -5 -12 10 -13 16
-4 26 11 14 16 13 49 -14z m-85 -52 c3 -5 -4 -11 -17 -11 -17 -1 -18 -3 -5 -6
9 -2 15 -9 12 -14 -8 -12 -26 -11 -45 1 -13 8 -12 11 5 24 23 18 41 20 50 6z
m-215 -20 c0 -5 -5 -10 -11 -10 -5 0 -7 5 -4 10 3 6 8 10 11 10 2 0 4 -4 4
-10z m70 -20 c0 -5 -5 -10 -11 -10 -5 0 -7 5 -4 10 3 6 8 10 11 10 2 0 4 -4 4
-10z m70 2 c0 -14 -36 -43 -43 -35 -4 3 1 14 11 24 19 19 32 24 32 11z m78
-37 c-3 -3 -9 2 -12 12 -6 14 -5 15 5 6 7 -7 10 -15 7 -18z m-2028 -31 c15
-33 20 -68 20 -128 0 -45 7 -108 15 -139 8 -32 15 -76 15 -98 0 -77 56 -119
233 -174 48 -15 87 -31 87 -36 0 -5 11 -11 24 -15 14 -3 23 -11 20 -19 -9 -23
-55 -35 -136 -35 -78 0 -148 -15 -148 -32 0 -4 9 -17 21 -29 13 -13 19 -28 16
-41 -4 -13 3 -28 19 -43 13 -12 24 -27 24 -34 0 -6 6 -11 13 -11 7 0 18 -9 25
-20 7 -11 19 -20 27 -20 23 0 18 -15 -11 -30 -31 -17 -166 -18 -172 -1 -5 16
-37 14 -52 -5 -10 -11 -11 -25 -4 -52 9 -36 11 -38 119 -75 61 -21 151 -44
200 -53 104 -17 135 -28 135 -48 0 -19 -45 -26 -169 -26 -208 0 -397 -19 -546
-56 -159 -39 -224 -44 -226 -16 -1 9 0 73 1 142 l1 125 -35 28 c-30 23 -36 34
-36 64 0 39 23 73 50 73 9 0 30 16 46 36 16 20 53 64 82 99 28 34 52 72 52 83
0 11 4 23 9 27 6 3 22 31 37 63 14 31 34 66 44 77 39 43 80 141 80 191 0 66
27 169 56 212 13 19 24 41 24 48 0 29 22 12 40 -32z m997 24 c-3 -8 -6 -5 -6
6 -1 11 2 17 5 13 3 -3 4 -12 1 -19z m973 -9 c0 -5 10 -9 23 -9 20 -1 21 -1 4
-11 -14 -8 -23 -7 -38 7 -23 20 -25 36 -4 28 8 -4 15 -10 15 -15z m-963 -41
c-3 -8 -6 -5 -6 6 -1 11 2 17 5 13 3 -3 4 -12 1 -19z m753 7 c-7 -9 -15 -13
-19 -10 -3 3 1 10 9 15 21 14 24 12 10 -5z m47 -31 c-3 -3 -12 -4 -19 -1 -8 3
-5 6 6 6 11 1 17 -2 13 -5z m-75 -46 c-7 -7 -12 -8 -12 -2 0 14 12 26 19 19 2
-3 -1 -11 -7 -17z m-2628 -45 c4 -9 3 -20 -2 -25 -11 -11 -47 16 -38 30 11 17
33 15 40 -5z m2156 -48 c0 -5 -5 -3 -10 5 -5 8 -10 20 -10 25 0 6 5 3 10 -5 5
-8 10 -19 10 -25z m167 -160 c0 -8 -4 -12 -9 -9 -4 3 -8 9 -8 15 0 5 4 9 8 9
5 0 9 -7 9 -15z m90 -27 c-3 -8 -6 -5 -6 6 -1 11 2 17 5 13 3 -3 4 -12 1 -19z
m1018 -23 c0 -16 -6 -19 -26 -17 -17 1 -26 -3 -26 -13 0 -8 7 -15 16 -15 13
-1 12 -3 -3 -12 -15 -8 -21 -8 -24 0 -2 7 -13 12 -25 12 -20 1 -21 2 -4 14 9
7 17 18 17 25 0 6 7 11 15 11 8 0 15 5 15 11 0 6 10 9 23 7 14 -2 22 -10 22
-23z m-1025 -20 c0 -8 -2 -15 -4 -15 -2 0 -6 7 -10 15 -3 8 -1 15 4 15 6 0 10
-7 10 -15z m1087 9 c-3 -3 -12 -4 -19 -1 -8 3 -5 6 6 6 11 1 17 -2 13 -5z
m157 -29 c3 -10 -1 -15 -14 -15 -10 0 -21 -3 -23 -7 -10 -15 -72 -9 -75 7 -2
11 5 15 23 15 13 -1 27 -4 31 -7 8 -9 44 3 38 13 -3 5 -1 9 4 9 6 0 12 -7 16
-15z m-1194 1 c0 -3 -4 -8 -10 -11 -5 -3 -10 -1 -10 4 0 6 5 11 10 11 6 0 10
-2 10 -4z m1535 -26 c27 -7 26 -8 -16 -9 -26 0 -66 -8 -89 -16 -57 -20 -143
-30 -164 -18 -11 6 0 9 37 10 28 1 79 11 112 21 66 22 76 23 120 12z m-1470
-28 c-3 -3 -11 0 -18 7 -9 10 -8 11 6 5 10 -3 15 -9 12 -12z m1015 8 c0 -5 -4
-10 -10 -10 -5 0 -10 5 -10 10 0 6 5 10 10 10 6 0 10 -4 10 -10z m-1050 -26
c0 -8 -19 -13 -24 -6 -3 5 1 9 9 9 8 0 15 -2 15 -3z m1130 -24 c0 -5 -4 -10
-10 -10 -5 0 -10 5 -10 10 0 6 5 10 10 10 6 0 10 -4 10 -10z m-1023 -32 c-3
-7 -5 -2 -5 12 0 14 2 19 5 13 2 -7 2 -19 0 -25z m-92 3 c10 -17 -12 -21 -25
-6 -10 12 -10 15 3 15 9 0 18 -4 22 -9z m1510 -1 c4 -7 -3 -8 -22 -4 -38 9
-42 14 -10 14 14 0 29 -5 32 -10z m40 0 c3 -5 12 -7 19 -4 7 3 19 -3 27 -12 9
-12 10 -15 2 -10 -7 4 -23 9 -35 11 -24 5 -49 25 -31 25 7 0 14 -4 18 -10z
m-375 -16 c0 -8 -19 -13 -24 -6 -3 5 1 9 9 9 8 0 15 -2 15 -3z m480 -24 c0 -4
-9 -6 -21 -3 -15 4 -17 8 -8 14 14 8 29 3 29 -11z m-1655 -30 c12 -19 -12 -10
-31 11 -19 22 -19 22 3 10 12 -6 25 -16 28 -21z m95 -3 c0 -4 -6 -2 -14 5 -8
7 -12 17 -9 22 5 8 23 -12 23 -27z m4 -39 c-5 -8 -1 -9 11 -4 15 5 16 4 5 -9
-15 -18 -35 -20 -24 -3 5 8 2 9 -9 5 -14 -5 -15 -3 -5 13 7 10 16 16 20 14 5
-3 5 -10 2 -16z m755 -45 c36 -20 80 -44 96 -53 75 -42 180 -93 300 -145 198
-87 232 -104 210 -104 -33 -1 -95 19 -95 31 0 5 -7 7 -16 4 -9 -4 -22 -3 -28
2 -6 5 -42 19 -81 31 -63 21 -154 61 -342 153 -67 32 -123 79 -123 103 0 21 5
20 79 -22z m760 -345 c52 -18 87 -34 79 -36 -9 -2 -42 6 -74 17 -32 12 -66 21
-75 21 -9 0 -27 9 -40 21 -22 18 -22 20 -4 16 11 -3 62 -20 114 -39z m166 -53
c22 -8 31 -14 20 -14 -24 1 -96 27 -75 28 8 0 33 -6 55 -14z m339 -977 c-6
-10 -5 -10 7 -1 14 11 124 12 135 0 3 -3 12 -3 18 -1 7 3 18 -1 24 -9 10 -12
8 -13 -13 -9 -15 2 -25 0 -25 -7 0 -6 11 -11 24 -11 14 0 33 -11 44 -25 11
-13 22 -22 25 -19 8 8 47 -15 47 -28 0 -7 -4 -7 -13 1 -8 6 -32 9 -53 7 -47
-4 -89 18 -64 34 13 8 12 10 -2 10 -10 0 -18 4 -18 9 0 5 -25 9 -56 8 -39 -1
-58 3 -64 13 -6 8 -10 11 -10 5 0 -11 -20 16 -20 28 0 4 5 7 11 7 5 0 7 -6 3
-12z m-1696 -140 c-3 -25 -34 -36 -50 -20 -17 17 -1 42 27 42 22 0 26 -4 23
-22z m-1103 -98 c3 -5 -1 -10 -10 -10 -9 0 -13 5 -10 10 3 6 8 10 10 10 2 0 7
-4 10 -10z m1775 -50 c0 -5 -4 -10 -10 -10 -5 0 -10 5 -10 10 0 6 5 10 10 10
6 0 10 -4 10 -10z m1507 -406 c-3 -3 -12 -4 -19 -1 -8 3 -5 6 6 6 11 1 17 -2
13 -5z m-4628 -181 c7 -14 7 -22 1 -18 -5 3 -10 1 -10 -6 0 -7 -11 -10 -30 -7
-16 2 -32 0 -34 -6 -5 -11 3 38 9 60 6 20 52 3 64 -23z m3161 -87 c0 -3 -4 -8
-10 -11 -5 -3 -10 -1 -10 4 0 6 5 11 10 11 6 0 10 -2 10 -4z m-3665 -66 c-3
-5 -10 -10 -16 -10 -5 0 -9 5 -9 10 0 6 7 10 16 10 8 0 12 -4 9 -10z m2735
-140 c0 -5 -5 -10 -11 -10 -5 0 -7 5 -4 10 3 6 8 10 11 10 2 0 4 -4 4 -10z
m-2450 -50 c0 -5 -4 -10 -9 -10 -6 0 -13 5 -16 10 -3 6 1 10 9 10 9 0 16 -4
16 -10z m-35 -20 c0 -22 -29 -18 -33 3 -3 14 1 18 15 15 10 -2 18 -10 18 -18z
m2410 -2 c-19 -11 -30 -5 -21 11 4 6 14 7 22 4 15 -5 14 -7 -1 -15z m1379
-699 c-7 -12 -41 -12 -49 0 -9 15 28 31 42 19 7 -6 10 -14 7 -19z m146 -99 c0
-5 -4 -10 -10 -10 -5 0 -10 5 -10 10 0 6 5 10 10 10 6 0 10 -4 10 -10z m-1430
-829 c0 -4 -6 -8 -14 -8 -8 0 -12 6 -9 14 5 13 23 9 23 -6z m1667 -243 c-3 -8
-6 -5 -6 6 -1 11 2 17 5 13 3 -3 4 -12 1 -19z"/>
<path d="M1560 6730 c0 -30 15 -40 60 -40 38 0 43 10 19 46 -20 31 -26 26 -8
-7 10 -19 9 -19 -10 -9 -12 6 -21 15 -21 19 0 5 -9 11 -20 14 -16 4 -20 0 -20
-23z"/>
<path d="M2018 6367 c-6 -29 17 -57 45 -57 24 0 21 15 -12 52 l-28 31 -5 -26z"/>
<path d="M1255 6130 c3 -5 10 -10 16 -10 5 0 9 5 9 10 0 6 -7 10 -16 10 -8 0
-12 -4 -9 -10z"/>
<path d="M1960 5619 c0 -5 5 -7 10 -4 6 3 10 8 10 11 0 2 -4 4 -10 4 -5 0 -10
-5 -10 -11z"/>
<path d="M1990 5600 c-12 -8 -12 -10 2 -15 10 -4 23 -5 30 -2 8 3 5 6 -7 7
-17 2 -16 3 5 10 21 7 21 8 5 9 -11 0 -27 -3 -35 -9z"/>
<path d="M2101 5584 c0 -11 3 -14 6 -6 3 7 2 16 -1 19 -3 4 -6 -2 -5 -13z"/>
<path d="M2235 5450 c-8 -13 -1 -24 14 -19 6 3 7 10 2 18 -6 10 -10 10 -16 1z"/>
<path d="M2340 5354 c0 -10 28 -34 41 -34 8 0 5 7 -6 20 -17 19 -35 26 -35 14z"/>
<path d="M2410 5290 c0 -5 5 -10 10 -10 6 0 10 5 10 10 0 6 -4 10 -10 10 -5 0
-10 -4 -10 -10z"/>
<path d="M2361 5287 c2 -1 12 -9 22 -16 15 -12 17 -12 11 3 -3 9 -13 16 -22
16 -8 0 -13 -1 -11 -3z"/>
<path d="M2591 5168 c0 -9 -4 -25 -7 -35 -5 -17 -5 -17 6 0 6 10 9 25 7 35 -4
15 -5 15 -6 0z"/>
<path d="M2655 5030 c3 -5 11 -10 16 -10 6 0 7 5 4 10 -3 6 -11 10 -16 10 -6
0 -7 -4 -4 -10z"/>
<path d="M2670 4993 c8 -3 19 -11 23 -17 6 -7 7 -6 4 4 -2 8 -12 16 -23 17
-13 2 -15 1 -4 -4z"/>
<path d="M2790 4911 c0 -5 5 -13 10 -16 6 -3 10 -2 10 4 0 5 -4 13 -10 16 -5
3 -10 2 -10 -4z"/>
<path d="M1110 4901 c0 -11 -5 -21 -11 -23 -9 -3 -8 -10 1 -25 13 -21 14 -21
43 8 16 17 28 31 26 33 -8 6 -48 26 -53 26 -3 0 -6 -9 -6 -19z"/>
<path d="M3665 5160 c3 -5 8 -10 11 -10 2 0 4 5 4 10 0 6 -5 10 -11 10 -5 0
-7 -4 -4 -10z"/>
<path d="M637 7333 c-8 -13 2 -43 14 -43 10 0 10 8 0 34 -5 12 -10 16 -14 9z"/>
<path d="M0 7180 c0 -11 5 -20 10 -20 6 0 10 9 10 20 0 11 -4 20 -10 20 -5 0
-10 -9 -10 -20z"/>
<path d="M82 5320 c1 -13 13 -29 25 -37 20 -13 23 -12 33 7 14 26 6 36 -33 46
-26 6 -28 4 -25 -16z"/>
<path d="M0 5098 c0 -27 3 -30 23 -24 12 3 27 6 34 6 7 0 17 9 23 21 10 19 10
20 -9 10 -11 -6 -22 -7 -25 -2 -3 5 -15 11 -26 14 -17 4 -20 0 -20 -25z"/>
<path d="M141 4879 c-23 -30 -26 -30 -82 -24 l-59 7 0 -55 c0 -35 5 -57 13
-60 6 -2 20 -28 31 -56 10 -28 21 -51 25 -51 12 0 32 -60 24 -72 -4 -7 -8 -24
-9 -38 0 -14 -4 -42 -8 -63 -8 -44 6 -69 32 -60 9 4 38 25 64 46 40 34 48 46
48 74 0 19 5 44 11 55 8 14 8 23 0 31 -6 6 -11 33 -11 59 0 40 -3 48 -18 48
-42 0 -60 56 -32 95 4 6 10 29 14 53 8 51 -8 55 -43 11z"/>
<path d="M23 4338 c-13 -6 -23 -20 -23 -30 0 -15 6 -19 28 -16 21 2 28 9 30
31 4 29 -1 31 -35 15z"/>
<path d="M36 3909 c-16 -28 -14 -58 2 -33 4 6 15 13 25 17 20 8 22 20 4 35
-10 9 -17 4 -31 -19z"/>
<path d="M107 3716 c-4 -9 -11 -14 -17 -11 -5 3 -10 2 -10 -3 0 -6 7 -13 15
-16 17 -6 30 15 23 36 -3 8 -7 6 -11 -6z"/>
<path d="M468 3483 c7 -3 16 -2 19 1 4 3 -2 6 -13 5 -11 0 -14 -3 -6 -6z"/>
<path d="M2270 3444 c0 -8 5 -12 10 -9 6 4 8 11 5 16 -9 14 -15 11 -15 -7z"/>
<path d="M5338 3323 c7 -3 16 -2 19 1 4 3 -2 6 -13 5 -11 0 -14 -3 -6 -6z"/>
<path d="M5386 3304 c-9 -22 -8 -23 14 -21 20 1 29 17 9 17 -5 0 -7 5 -4 10 3
6 2 10 -3 10 -6 0 -13 -7 -16 -16z"/>
<path d="M5435 3300 c3 -5 8 -10 11 -10 2 0 4 5 4 10 0 6 -5 10 -11 10 -5 0
-7 -4 -4 -10z"/>
<path d="M5475 3300 c-3 -5 3 -10 14 -10 10 0 26 -3 35 -6 11 -4 16 -1 16 10
0 18 -54 23 -65 6z"/>
<path d="M5510 2805 c0 -8 7 -15 15 -15 8 0 15 4 15 9 0 5 -7 11 -15 15 -9 3
-15 0 -15 -9z"/>
<path d="M5407 2743 c-12 -11 -8 -21 13 -26 24 -6 38 12 19 24 -17 11 -24 11
-32 2z"/>
<path d="M5318 2723 c7 -3 16 -2 19 1 4 3 -2 6 -13 5 -11 0 -14 -3 -6 -6z"/>
<path d="M5300 2680 c0 -5 5 -10 11 -10 5 0 7 5 4 10 -3 6 -8 10 -11 10 -2 0
-4 -4 -4 -10z"/>
<path d="M5365 2670 c-3 -5 -2 -10 4 -10 5 0 13 5 16 10 3 6 2 10 -4 10 -5 0
-13 -4 -16 -10z"/>
<path d="M5517 2494 c-8 -8 1 -24 14 -24 5 0 9 7 9 15 0 15 -12 20 -23 9z"/>
<path d="M3499 2404 c-12 -14 -11 -16 5 -13 11 2 21 10 24 17 5 17 -13 15 -29
-4z"/>
<path d="M5350 2400 c-13 -9 -11 -13 10 -30 29 -23 41 -25 58 -8 6 6 15 8 19
3 5 -4 2 -10 -4 -12 -7 -3 -13 -9 -13 -13 0 -15 43 -51 73 -62 15 -6 27 -14
27 -19 0 -5 5 -9 10 -9 6 0 10 26 10 58 l0 59 -42 1 c-24 1 -44 7 -46 12 -2 6
-12 10 -22 10 -10 0 -22 5 -25 10 -8 13 -36 13 -55 0z"/>
<path d="M4293 2394 c-7 -3 -13 -10 -13 -15 0 -11 68 -11 95 1 18 8 18 9 -5 9
-14 1 -34 3 -45 6 -11 2 -26 2 -32 -1z"/>
<path d="M5505 2390 c-3 -5 -1 -10 4 -10 6 0 11 5 11 10 0 6 -2 10 -4 10 -3 0
-8 -4 -11 -10z"/>
<path d="M3248 2367 c-30 -12 -37 -27 -13 -27 8 0 12 -6 10 -12 -10 -28 50
-73 82 -61 10 3 26 13 36 22 17 14 20 14 35 -6 22 -28 68 -21 75 10 3 12 9 32
12 45 6 17 3 22 -12 22 -10 0 -23 -4 -28 -9 -6 -5 -20 -12 -32 -16 -18 -5 -23
-2 -23 13 0 14 -7 19 -31 20 -17 0 -42 3 -57 5 -15 3 -39 0 -54 -6z"/>
<path d="M4738 2268 c9 -9 15 -9 24 0 9 9 7 12 -12 12 -19 0 -21 -3 -12 -12z"/>
<path d="M4200 2250 c-12 -8 -9 -10 13 -10 16 0 26 4 22 10 -8 12 -16 12 -35
0z"/>
<path d="M4538 2243 c7 -3 16 -2 19 1 4 3 -2 6 -13 5 -11 0 -14 -3 -6 -6z"/>
<path d="M3928 2163 c-10 -2 -18 -8 -18 -13 0 -10 45 -5 80 9 24 9 23 10 -10
9 -19 0 -43 -2 -52 -5z"/>
<path d="M4155 2160 c-8 -13 4 -32 16 -25 12 8 12 35 0 35 -6 0 -13 -4 -16
-10z"/>
<path d="M4060 2094 c-22 -12 -23 -13 -5 -13 24 -1 50 14 38 22 -4 3 -19 -1
-33 -9z"/>
<path d="M4415 2019 c-4 -6 -5 -13 -2 -16 7 -7 27 6 27 18 0 12 -17 12 -25 -2z"/>
<path d="M4136 1952 c-7 -12 3 -42 14 -42 5 0 15 3 24 6 17 7 22 34 7 34 -5 0
-16 3 -24 6 -8 3 -18 1 -21 -4z"/>
<path d="M5110 693 c0 -12 51 -33 79 -33 l26 0 -25 20 c-24 19 -80 28 -80 13z"/>
<path d="M5150 537 c0 -22 7 -28 40 -38 22 -7 45 -18 51 -26 15 -17 27 -17 45
1 38 39 2 72 -88 83 -46 6 -48 5 -48 -20z"/>
<path d="M5480 360 c0 -11 5 -20 10 -20 6 0 10 9 10 20 0 11 -4 20 -10 20 -5
0 -10 -9 -10 -20z"/>
</g>
</svg>
